<?xml version="1.0" standalone="no"?> <!DOCTYPE svg PUBLIC "-//W3C//DTD SVG 1.0//EN" "http://www.w3.org/TR/2001/REC-SVG-20010904/DTD/svg10.dtd" > <svg xmlns="http://www.w3.org/2000/svg" width="100%" height="100%">
<defs >
<font horiz-adv-x="561" ><font-face
    font-family=""
    units-per-em="1000"
    panose-1="0 0 0 0 0 0 0 0 0 0"
    ascent="797"
    descent="-203"
    alphabetic="0" />
<missing-glyph horiz-adv-x="500" />
<glyph unicode=" " glyph-name="space" horiz-adv-x="206" />
<glyph unicode="!" glyph-name="exclam" horiz-adv-x="298" d="M53 721H244L216 266H81L53 721ZM67 158H232V0H67V158Z" />
<glyph unicode="&quot;" glyph-name="quotedbl" horiz-adv-x="486" d="M277 721H437L421 466H293L277 721ZM49 721H209L193 466H65L49 721Z" />
<glyph unicode="#" glyph-name="numbersign" horiz-adv-x="596" d="M62 561H164L187 721H294L271 561H382L405 721H512L489 561H564V425H470L453 301H534V165H433L410 0H303L326 165H215L192 0H85L108 165H32V301H128L145 425H62V561ZM235 301H346L363 425H252L235 301Z" />
<glyph unicode="$" glyph-name="dollar" horiz-adv-x="562" d="M149 -4Q102 3 73 13T30 31V168Q55 158 92 147T180 129L218 293L212 295Q164 305 130 321T72 362T38 423T27 511Q27 613 91 673T290 733Q298 733 305 733T319 732L341 826H429L405 723Q441 717 461
709T493 696V556Q476 562 446 571T374 586L338 431H339Q390 421 427 407T489 369T524 310T536 224Q536 106 465 47T260 -12H235L203 -153H115L149 -4ZM367 203Q367 217 365 228T356 248T337 263T302 275L267 125Q298 126 317 131T348 146T363 170T367 203ZM188
523Q188 508 190 497T199 476T219 460T254 448L287 592Q230 591 209 574T188 523Z" />
<glyph unicode="%" glyph-name="percent" horiz-adv-x="990" d="M769 89Q797 89 808 108T820 173V221Q820 268 808 287T769 307Q743 307 731 288T719 224V174Q719 129 730 109T769 89ZM769 406Q809 406 843 394T902 359T941 302T955 221V180Q955 134 941 99T903
39T844 3T769 -10Q688 -10 637 37T585 175V216Q585 262 599 297T637 357T695 393T769 406ZM219 317Q138 317 87 364T35 502V543Q35 589 49 624T87 684T145 720T219 733Q259 733 293 721T352 686T391 629T405 548V507Q405 461 391 426T353 366T294 330T219 317ZM660
742H779L319 -42H200L660 742ZM219 416Q247 416 258 435T270 500V548Q270 595 258 614T219 634Q193 634 181 615T169 551V501Q169 456 180 436T219 416Z" />
<glyph unicode="&amp;" glyph-name="ampersand" horiz-adv-x="747" d="M316 -12Q181 -12 107 43T32 203Q32 242 44 273T77 328T128 371T191 404Q165 441 155 474T145 542Q145 585 162 620T209 681T283 719T378 733Q428 733 469 720T539 684T584 629T600 556Q600
521 589 494T557 444T504 402T430 365L539 237Q563 291 572 364H715Q707 298 683 242T621 141L741 0H532L499 38Q455 13 408 1T316 -12ZM341 113Q364 113 385 116T424 126L256 324Q237 307 224 282T211 225Q211 176 242 145T341 113ZM312 552Q312 528 322 505T355
455L370 437Q409 461 427 490T445 549Q445 581 427 599T380 618Q354 618 333 602T312 552Z" />
<glyph unicode="&apos;" glyph-name="quotesingle" horiz-adv-x="255" d="M48 721H208L192 466H64L48 721Z" />
<glyph unicode="(" glyph-name="parenleft" horiz-adv-x="399" d="M244 -125Q208 -94 172 -52T108 42T63 157T45 296V349Q45 424 62 487T108 602T172 696T244 769H385Q351 727 321 682T268 586T232 479T218 357V294Q218 228 231 170T267 61T320 -37T385 -125H244V-125Z" />
<glyph unicode=")" glyph-name="parenright" horiz-adv-x="399" d="M155 -125H14Q48 -83 78 -37T131 60T167 170T181 294V357Q181 422 168 478T132 585T79 681T14 769H155Q191 737 227 696T291 603T336 487T354 349V296Q354 221 337 158T291 42T227 -52T155 -125Z" />
<glyph unicode="*" glyph-name="asterisk" horiz-adv-x="478" d="M216 474L89 350L29 465L196 512L29 559L89 674L216 550L171 721H306L261 550L388 674L448 559L281 512L448 465L388 350L261 474L306 303H171L216 474Z" />
<glyph unicode="+" glyph-name="plus" horiz-adv-x="573" d="M214 284H45V420H214V600H358V420H529V284H358V104H214V284Z" />
<glyph unicode="," glyph-name="comma" horiz-adv-x="266" d="M55 158H223L174 -107H44L55 158Z" />
<glyph unicode="-" glyph-name="hyphen" horiz-adv-x="368" d="M42 374H326V235H42V374Z" />
<glyph unicode="." glyph-name="period" horiz-adv-x="266" d="M51 158H215V0H51V158Z" />
<glyph unicode="/" glyph-name="slash" horiz-adv-x="423" d="M262 769H409L144 -125H-1L262 769Z" />
<glyph unicode="0" glyph-name="zero" horiz-adv-x="676" d="M337 -12Q270 -12 215 6T121 63T60 160T38 300V413Q38 498 61 558T124 658T220 715T338 733Q404 733 459 714T553 657T615 559T638 420V306Q638 222 615 162T552 64T456 7T337 -12ZM338 126Q366 126
386 135T419 163T438 214T444 292V420Q444 515 418 554T338 594Q282 594 257 557T232 427V300Q232 209 256 168T338 126Z" />
<glyph unicode="1" glyph-name="one" horiz-adv-x="439" d="M162 526L16 506V626L243 721H348V0H162V526Z" />
<glyph unicode="2" glyph-name="two" horiz-adv-x="545" d="M27 133L167 270Q232 334 267 382T303 480V492Q303 542 274 560T193 579Q143 579 105 568T37 545V684Q72 703 123 718T253 733Q305 733 350 721T428 683T479 617T498 522V506Q498 458 487 420T454 349T400
286T328 224L233 149V146H508V0H27V133Z" />
<glyph unicode="3" glyph-name="three" horiz-adv-x="550" d="M239 -12Q164 -12 111 1T26 32V169Q59 158 101 150T186 141Q261 141 291 159T321 222Q321 267 296 282T217 298H132V436H210Q264 436 287 454T310 512Q310 554 284 567T198 580Q153 580 116 574T49
558V696Q87 712 140 722T256 733Q309 733 352 722T427 687T475 629T492 549Q492 484 457 442T339 383V379Q386 372 419 359T473 325T503 274T513 204Q513 103 442 46T239 -12Z" />
<glyph unicode="4" glyph-name="four" horiz-adv-x="648" d="M337 156H23V286L347 721H517V294H621V156H517V0H337V156ZM160 285Q176 286 193 288Q207 289 223 290T256 291H343V425Q343 445 343 467T346 509Q348 532 350 555H346Q337 535 326 515Q317 498 306
477T282 439L244 385Q233 370 219 353T191 321Q175 304 160 288V285Z" />
<glyph unicode="5" glyph-name="five" horiz-adv-x="547" d="M232 -12Q157 -12 107 1T24 32V168Q56 155 94 148T177 140Q248 140 281 160T315 232Q315 285 284 305T177 326Q139 326 110 322T51 310L74 721H481V579H202L192 430Q209 439 233 447T300 456Q346 456
384 443T451 403T494 333T510 231Q510 117 440 53T232 -12Z" />
<glyph unicode="6" glyph-name="six" horiz-adv-x="638" d="M335 -12Q192 -12 115 64T38 291V383Q38 478 63 544T134 653T242 714T376 733Q442 733 485 725T554 703V567Q533 573 497 578T423 584Q371 584 335 576T275 547T241 489T228 393Q253 424 292 441T384
459Q487 459 545 407T604 239Q604 183 588 137T539 58T456 7T335 -12ZM329 116Q374 116 394 142T414 229Q414 265 408 287T389 320T360 334T321 338Q292 338 269 329T230 310V263Q230 187 252 152T329 116Z" />
<glyph unicode="7" glyph-name="seven" horiz-adv-x="549" d="M259 401Q273 432 291 462T326 517Q344 545 364 571V575H26V721H523V586L275 0H71L259 401Z" />
<glyph unicode="8" glyph-name="eight" horiz-adv-x="641" d="M318 -12Q175 -12 105 37T35 180Q35 245 74 284T183 348V353Q117 379 85 419T53 529Q53 578 72 616T126 680T211 719T322 733Q447 733 514 685T582 544Q582 488 549 450T445 387V382Q484 369 514 354T565
319T596 270T607 202Q607 148 587 108T530 41T439 1T318 -12ZM314 112Q366 112 394 131T422 193Q422 215 415 231T391 259T346 282T278 303Q245 285 225 260T205 196Q205 151 233 132T314 112ZM347 440Q377 457 395 477T414 533Q414 567 393 587T323 608Q279 608
256 590T232 538Q232 500 259 480T347 440Z" />
<glyph unicode="9" glyph-name="nine" horiz-adv-x="638" d="M255 -12Q189 -12 144 -4T73 18V154Q95 148 133 143T209 137Q263 137 300 145T362 174T397 232T410 328Q384 297 345 280T253 262Q202 262 162 274T93 314T49 382T34 482Q34 538 50 584T100 663T185
714T307 733Q450 733 525 657T600 430V338Q600 243 575 177T505 68T396 7T255 -12ZM317 383Q346 383 368 392T408 411V458Q408 534 385 569T309 605Q264 605 244 579T224 492Q224 456 230 434T248 401T277 387T317 383Z" />
<glyph unicode=":" glyph-name="colon" horiz-adv-x="274" d="M54 158H218V0H54V158ZM54 461H218V303H54V461Z" />
<glyph unicode=";" glyph-name="semicolon" horiz-adv-x="274" d="M310 158H478L429 -107H299L310 158ZM54 461H218V303H54V461Z" />
<glyph unicode="&lt;" glyph-name="less" horiz-adv-x="536" d="M53 267V403L477 605V457L207 335L477 213V64L53 267Z" />
<glyph unicode="=" glyph-name="equal" horiz-adv-x="553" d="M48 503H505V369H48V503ZM48 251H505V118H48V251Z" />
<glyph unicode="&gt;" glyph-name="greater" horiz-adv-x="536" d="M59 213L329 335L59 457V605L483 403V267L59 64V213Z" />
<glyph unicode="?" glyph-name="question" horiz-adv-x="456" d="M104 302Q104 329 108 348T122 382T146 411T182 442Q199 456 211 466T232 486T244 507T248 532Q248 563 228 579T155 595Q113 595 82 588T25 572V696Q60 712 104 722T209 733Q257 733 297 724T366
693T412 639T429 558Q429 522 422 497T402 452T369 414T324 377Q301 360 287 348T265 326T253 306T250 281V266H104V302ZM96 158H260V0H96V158Z" />
<glyph unicode="@" glyph-name="at" horiz-adv-x="937" d="M458 -167Q365 -167 288 -143T155 -69T68 55T37 230Q37 328 70 415T164 567T314 669T511 707Q595 707 666 682T790 609T871 494T901 343Q901 266 881 212T826 122T745 71T648 55Q591 55 560 72T520 116H515Q497
94 468 76T398 57Q370 57 345 67T300 96T270 146T259 216Q259 274 273 321T312 402T374 454T456 473Q488 473 513 465T553 443H558L563 465H693L644 193Q640 172 646 160T673 148Q697 148 719 159T758 193T786 251T796 336Q796 399 778 450T724 537T632 592T503
612Q422 612 356 584T243 506T170 387T144 233Q144 153 166 95T229 -1T328 -57T458 -75Q542 -75 600 -62T706 -31V-112Q659 -138 601 -152T458 -167ZM447 154Q465 154 478 163T502 184L533 364Q526 372 513 377T482 382Q439 382 420 336T400 216Q400 183 412 169T447
154Z" />
<glyph unicode="A" glyph-name="A" horiz-adv-x="698" d="M251 721H449L688 0H495L453 135H214L174 0H9L251 721ZM250 252H417L383 365Q372 400 364 441T349 520Q342 563 336 606H331Q325 563 318 520Q312 483 303 441T284 365L250 252Z" />
<glyph unicode="B" glyph-name="B" horiz-adv-x="648" d="M60 721H362Q480 721 534 675T589 538Q589 477 557 437T449 379V375Q530 364 573 325T616 205Q616 161 603 124T562 59T487 16T375 0H60V721ZM340 131Q386 131 407 152T428 223Q428 270 407 290T335 310H242V131H340ZM328
431Q348 431 363 434T389 447T405 471T411 512Q411 557 393 573T331 589H242V431H328Z" />
<glyph unicode="C" glyph-name="C" horiz-adv-x="573" d="M358 -12Q283 -12 223 7T121 66T56 170T33 321V396Q33 491 59 555T131 659T238 716T368 733Q431 733 472 725T544 701V555Q511 566 479 574T403 582Q361 582 329 574T275 546T242 493T231 411V329Q231
280 239 244T266 185T318 151T398 139Q451 139 487 150T549 173V27Q514 10 470 -1T358 -12Z" />
<glyph unicode="D" glyph-name="D" horiz-adv-x="694" d="M60 721H320Q401 721 464 705T571 651T638 553T661 403V329Q661 242 638 180T572 77T465 19T321 0H60V721ZM317 145Q355 145 383 152T429 179T456 232T465 319V406Q465 459 455 492T426 544T378 569T313
576H247V145H317Z" />
<glyph unicode="E" glyph-name="E" horiz-adv-x="579" d="M60 721H531V573H243V438H468V298H243V148H541V0H60V721Z" />
<glyph unicode="F" glyph-name="F" horiz-adv-x="557" d="M60 721H529V573H247V414H468V270H247V0H60V721Z" />
<glyph unicode="G" glyph-name="G" horiz-adv-x="667" d="M377 -11Q296 -11 232 5T124 61T57 164T33 323V396Q33 495 61 560T136 664T247 717T382 733Q454 733 506 723T588 697V547Q559 558 516 567T406 577Q350 577 316 565T262 531T235 476T228 401V319Q228
273 233 237T253 176T297 137T373 123Q395 123 415 126T449 135V260H351V394H622V36Q583 15 517 2T377 -11Z" />
<glyph unicode="H" glyph-name="H" horiz-adv-x="716" d="M60 721H246V445H471V721H656V0H471V295H246V0H60V721Z" />
<glyph unicode="I" glyph-name="I" horiz-adv-x="306" d="M60 721H246V0H60V721Z" />
<glyph unicode="J" glyph-name="J" horiz-adv-x="453" d="M176 -8Q119 -8 85 1T24 25V157Q41 151 64 147T113 143Q159 143 187 163T215 235V721H400V209Q400 162 386 122T345 53T275 8T176 -8Z" />
<glyph unicode="K" glyph-name="K" horiz-adv-x="680" d="M257 362L467 721H656L446 380L671 0H471L257 362ZM60 721H247V0H60V721Z" />
<glyph unicode="L" glyph-name="L" horiz-adv-x="534" d="M59 721H246V148H510V0H59V721Z" />
<glyph unicode="M" glyph-name="M" horiz-adv-x="881" d="M60 721H322L377 511Q388 471 398 414T418 303Q429 241 439 174H443Q452 240 463 302Q472 356 482 413T504 511L559 721H821V0H645V286Q645 305 645 330T646 385T647 445T649 505Q651 573 654 647H650Q637
576 625 510Q620 482 614 452T602 394T591 341T580 298L501 0H352L274 299Q264 337 252 395T229 510Q216 575 203 647H199Q202 574 205 505Q206 476 207 445T209 385T210 330T211 285V0H60V721Z" />
<glyph unicode="N" glyph-name="N" horiz-adv-x="711" d="M60 721H265L379 520Q396 488 417 443T456 354Q477 304 498 251H501Q497 309 493 363Q490 409 488 458T486 540V721H651V0H472L333 245Q316 275 296 322T257 415Q236 468 215 524H211Q214 462 218 404Q219
379 220 353T223 302T225 254T226 213V0H60V721Z" />
<glyph unicode="O" glyph-name="O" horiz-adv-x="718" d="M359 -12Q290 -12 230 6T127 65T58 168T33 322V396Q33 488 59 552T131 656T235 715T362 733Q432 733 491 715T593 657T660 554T685 400V326Q685 234 659 170T589 66T486 7T359 -12ZM359 127Q426 127 457
172T489 314V400Q489 453 482 490T460 550T420 583T359 594Q292 594 261 550T229 410V324Q229 269 236 232T259 171T299 137T359 127Z" />
<glyph unicode="P" glyph-name="P" horiz-adv-x="635" d="M60 721H349Q485 721 548 660T611 487Q611 362 546 301T352 240H247V0H60V721ZM325 372Q379 372 399 395T420 477Q420 510 415 531T399 563T371 579T329 584H247V372H325Z" />
<glyph unicode="Q" glyph-name="Q" horiz-adv-x="718" d="M291 -17Q243 -3 197 18T115 76T56 172T33 321V395Q33 487 59 551T131 655T235 714T362 733Q432 733 491 715T593 656T660 553T685 399V325Q685 260 670 213T629 134T567 83T487 54V50L745 7L717 -145L291
-17ZM359 124Q426 124 457 170T489 313V399Q489 452 482 489T460 549T420 583T359 594Q292 594 261 550T229 409V323Q229 268 236 230T259 169T299 135T359 124Z" />
<glyph unicode="R" glyph-name="R" horiz-adv-x="656" d="M60 721H349Q479 721 542 667T606 497Q606 420 576 378T487 314V310L651 0H458L324 263H247V0H60V721ZM327 387Q379 387 400 409T421 487Q421 540 400 563T326 586H245V387H327Z" />
<glyph unicode="S" glyph-name="S" horiz-adv-x="549" d="M252 -12Q180 -12 123 -1T31 31V180Q76 163 124 151T232 139Q289 139 314 156T339 206Q339 221 336 232T323 252T298 266T256 279L202 292Q158 302 126 318T72 360T39 423T28 511Q28 613 88 673T279 733Q319
733 349 730T403 722T445 710T477 696V548Q443 562 398 572T295 582Q204 582 204 521Q204 507 207 497T218 479T242 465T280 453L335 440Q380 429 415 413T473 373T508 312T520 224Q520 -12 252 -12Z" />
<glyph unicode="T" glyph-name="T" horiz-adv-x="589" d="M202 573H20V721H569V573H387V0H202V573Z" />
<glyph unicode="U" glyph-name="U" horiz-adv-x="691" d="M351 -12Q203 -12 129 50T55 243V721H242V250Q242 182 270 157T356 132Q415 132 442 157T469 251V721H635V245Q635 113 567 51T351 -12Z" />
<glyph unicode="V" glyph-name="V" horiz-adv-x="676" d="M11 721H201L284 442Q289 426 294 405T304 361T315 312T325 264Q336 209 347 150H351Q360 208 371 263Q380 310 390 359T410 442L490 721H664L433 0H243L11 721Z" />
<glyph unicode="W" glyph-name="W" horiz-adv-x="946" d="M15 721H201L251 473Q255 450 259 422T268 364T275 303T281 244Q287 177 292 108H295Q301 176 309 241Q316 297 324 358T344 466L401 721H564L621 466Q631 420 639 359T655 241Q663 176 669 108H672Q677
177 683 244Q686 272 689 303T696 364T704 422T714 473L766 721H930L764 0H575L518 268Q510 306 503 359T489 464Q482 523 476 585H473Q467 523 460 464Q454 413 446 360T430 268L369 0H180L15 721Z" />
<glyph unicode="X" glyph-name="X" horiz-adv-x="689" d="M221 371L30 721H230L285 613Q298 587 310 556T332 498Q343 466 353 434H357Q366 466 377 498Q386 525 397 556T422 613L474 721H659L470 375L673 0H473L411 122Q397 148 385 179T362 237Q351 269 340
301H336Q325 269 314 237Q304 210 292 179T265 122L200 0H15L221 371Z" />
<glyph unicode="Y" glyph-name="Y" horiz-adv-x="640" d="M227 282L8 721H201L252 608Q266 577 279 540T304 469Q317 430 329 392H332Q343 430 355 469Q366 502 378 539T405 608L456 721H631L413 282V0H227V282Z" />
<glyph unicode="Z" glyph-name="Z" horiz-adv-x="584" d="M32 137L238 431Q254 454 274 479T314 525Q336 550 359 574V577H51V721H547V584L342 290Q325 267 305 242T265 195Q243 170 221 147V144H546V0H32V137Z" />
<glyph unicode="[" glyph-name="bracketleft" horiz-adv-x="402" d="M62 769H371V640H230V4H371V-125H62V769Z" />
<glyph unicode="\" glyph-name="backslash" horiz-adv-x="423" d="M14 769H161L424 -125H279L14 769Z" />
<glyph unicode="]" glyph-name="bracketright" horiz-adv-x="402" d="M340 -125H31V4H172V640H31V769H340V-125Z" />
<glyph unicode="^" glyph-name="asciicircum" horiz-adv-x="523" d="M187 721H336L501 425H365L261 578L157 425H22L187 721Z" />
<glyph unicode="_" glyph-name="underscore" horiz-adv-x="361" d="M-10 -53H371V-161H-10V-53Z" />
<glyph unicode="`" glyph-name="grave" horiz-adv-x="484" d="M74 793H250L317 624H177L74 793Z" />
<glyph unicode="a" glyph-name="a" horiz-adv-x="527" d="M188 -10Q115 -10 70 30T24 149Q24 192 37 221T75 270T135 300T213 317L313 330V358Q313 397 290 411T207 426Q167 426 132 422T68 410V530Q150 563 271 563Q374 563 427 522T480 383V0H341L329 53H323Q306
24 272 7T188 -10ZM246 95Q266 95 284 101T313 118V241L247 234Q215 230 200 214T185 163Q185 125 202 110T246 95Z" />
<glyph unicode="b" glyph-name="b" horiz-adv-x="593" d="M277 -11Q210 -11 152 -1T50 26V769H217V493H222Q249 523 284 543T376 563Q409 563 442 552T502 513T546 439T563 320V267Q563 191 545 138T490 52T401 4T277 -11ZM287 101Q335 101 363 132T391 244V302Q391
342 386 366T368 404T338 422T295 427Q272 427 251 421T217 408V115Q228 110 245 106T287 101Z" />
<glyph unicode="c" glyph-name="c" horiz-adv-x="465" d="M284 -10Q159 -10 93 53T27 245V299Q27 432 97 497T292 563Q346 563 379 555T437 534V405Q424 411 412 415T387 423T358 427T321 429Q263 429 230 403T196 312V255Q196 183 225 153T324 123Q363 123 392
131T441 148V27Q418 13 380 2T284 -10Z" />
<glyph unicode="d" glyph-name="d" horiz-adv-x="592" d="M233 -10Q192 -10 155 3T90 46T46 124T30 241V294Q30 368 47 419T94 502T166 548T258 563Q304 563 332 549T374 519V769H542V0H397L385 62H380Q354 28 318 9T233 -10ZM297 119Q323 119 342 127T374 145V420Q363
429 344 435T299 441Q275 441 257 436T226 415T207 374T200 306V248Q200 207 206 182T225 143T256 124T297 119Z" />
<glyph unicode="e" glyph-name="e" horiz-adv-x="552" d="M304 -10Q27 -10 27 250V304Q27 427 95 495T282 563Q407 563 466 498T526 299V225H196Q201 162 237 141T347 120Q395 120 434 128T505 147V34Q475 18 426 4T304 -10ZM282 446Q264 446 248 442T220 424T200
389T191 330H365Q365 365 359 387T343 423T317 441T282 446Z" />
<glyph unicode="f" glyph-name="f" horiz-adv-x="396" d="M95 427H24V552H95V607Q95 695 146 737T280 779Q321 779 350 774T394 761V650Q384 652 369 654T336 656Q298 656 280 641T262 588V552H368V427H262V0H95V427Z" />
<glyph unicode="g" glyph-name="g" horiz-adv-x="594" d="M266 -218Q202 -218 151 -207T62 -178V-57Q88 -66 133 -75T225 -85Q305 -85 340 -64T376 10V72H371Q323 21 229 21Q189 21 153 32T90 72T46 145T30 258V304Q30 377 47 426T94 506T165 550T255 563Q306
563 339 549T392 520H397L407 552H544V-5Q544 -65 525 -106T470 -171T383 -207T266 -218ZM297 144Q326 144 344 151T376 167V413Q365 422 343 429T299 436Q275 436 257 432T227 414T209 378T202 317V267Q202 227 208 203T227 165T256 148T297 144Z" />
<glyph unicode="h" glyph-name="h" horiz-adv-x="587" d="M50 769H217V490H222Q252 525 293 544T384 563Q458 563 499 528T540 411V0H372V363Q372 397 357 410T303 424Q280 424 257 418T217 404V0H50V769Z" />
<glyph unicode="i" glyph-name="i" horiz-adv-x="270" d="M51 552H219V0H51V552ZM51 769H219V627H51V769Z" />
<glyph unicode="j" glyph-name="j" horiz-adv-x="270" d="M35 -206Q3 -206 -22 -201T-61 -187V-76Q-52 -78 -42 -79T-20 -80Q15 -80 33 -64T51 -12V552H219V-29Q219 -68 209 -101T177 -157T120 -193T35 -206ZM51 769H219V627H51V769Z" />
<glyph unicode="k" glyph-name="k" horiz-adv-x="564" d="M50 769H217V0H50V769ZM226 289L366 552H542L388 300L551 0H371L226 289Z" />
<glyph unicode="l" glyph-name="l" horiz-adv-x="310" d="M191 -8Q119 -8 84 23T49 133V769H216V161Q216 135 225 125T261 115Q272 115 282 117T301 121V15Q288 7 260 0T191 -8Z" />
<glyph unicode="m" glyph-name="m" horiz-adv-x="876" d="M51 552H212V485H217Q250 520 289 541T380 563Q426 563 458 544T506 482H511Q549 520 593 541T685 563Q754 563 791 529T829 413V0H661V364Q661 396 648 410T601 424Q562 424 524 408V0H356V364Q356 396
343 410T296 424Q275 424 255 419T218 408V0H51V552Z" />
<glyph unicode="n" glyph-name="n" horiz-adv-x="588" d="M51 552H212V484H217Q285 563 385 563Q459 563 500 528T541 411V0H373V363Q373 397 358 410T304 424Q281 424 258 418T218 404V0H51V552Z" />
<glyph unicode="o" glyph-name="o" horiz-adv-x="580" d="M290 -10Q159 -10 94 56T28 247V299Q28 365 47 414T102 497T185 546T290 563Q421 563 486 497T552 305V254Q552 188 533 139T479 56T396 7T290 -10ZM292 111Q314 111 331 117T359 139T376 180T382 244V302Q382
347 376 374T357 416T328 436T290 441Q245 441 222 412T198 307V249Q198 205 205 178T224 136T254 116T292 111Z" />
<glyph unicode="p" glyph-name="p" horiz-adv-x="594" d="M50 552H212V486H217Q243 523 281 543T373 563Q412 563 446 551T507 511T549 435T564 316V264Q564 187 549 135T504 50T434 4T340 -10Q295 -10 264 2T218 29V-203H50V552ZM293 107Q317 107 335 113T366
134T385 175T392 242V301Q392 340 386 364T368 402T339 421T298 426Q270 426 250 419T218 403V128Q229 120 249 114T293 107Z" />
<glyph unicode="q" glyph-name="q" horiz-adv-x="593" d="M376 49H371Q348 20 317 5T237 -10Q199 -10 162 2T95 44T48 120T30 238V290Q30 367 50 419T108 503T198 549T316 563Q394 563 450 552T544 524V-203H376V49ZM297 123Q326 123 345 130T376 147V430Q352
442 303 442Q279 442 260 437T228 416T209 375T202 307V249Q202 209 208 184T227 146T256 128T297 123Z" />
<glyph unicode="r" glyph-name="r" horiz-adv-x="410" d="M51 552H213V462H219Q246 512 282 535T358 559Q369 559 377 557T390 553V396Q381 398 369 399T346 400Q311 400 277 395T219 377V0H51V552Z" />
<glyph unicode="s" glyph-name="s" horiz-adv-x="469" d="M214 -10Q154 -10 109 -3T31 23V148Q63 135 99 126T189 117Q219 117 237 120T265 130T278 144T281 163Q281 182 269 191T221 206L178 213Q109 224 69 264T29 381Q29 468 81 515T242 563Q302 563 340 557T408
538V415Q382 424 347 430T264 436Q213 436 197 425T181 393Q181 375 193 367T242 352L284 345Q369 331 405 291T441 175Q441 84 385 37T214 -10Z" />
<glyph unicode="t" glyph-name="t" horiz-adv-x="408" d="M258 -8Q218 -8 187 -1T135 24T103 71T92 146V427H21V552H92V682H259V552H370V427H259V171Q259 141 274 131T323 121Q336 121 349 123T374 127V15Q358 6 329 -1T258 -8Z" />
<glyph unicode="u" glyph-name="u" horiz-adv-x="581" d="M202 -11Q128 -11 88 28T47 148V552H214V189Q214 155 227 140T278 124Q301 124 323 131T362 147V552H530V0H383L371 68H366Q331 29 292 9T202 -11Z" />
<glyph unicode="v" glyph-name="v" horiz-adv-x="551" d="M1 552H174L230 362Q241 327 249 284T265 203Q273 159 280 115H284Q290 159 298 202Q305 239 313 281T333 358L390 552H549L363 0H187L1 552Z" />
<glyph unicode="w" glyph-name="w" horiz-adv-x="788" d="M10 552H177L211 401Q218 368 224 318T236 221Q241 166 247 107H251Q257 166 264 221Q270 269 277 318T294 401L333 552H476L516 401Q524 368 532 318T547 221Q554 166 561 107H565Q569 166 575 221Q580
269 586 318T601 401L635 552H777L638 0H481L434 180Q426 210 419 253T407 338Q401 386 396 436H393Q388 386 382 338Q377 297 370 254T355 180L307 0H151L10 552Z" />
<glyph unicode="x" glyph-name="x" d="M170 286L18 552H202L239 474Q250 451 258 428T274 384Q282 361 288 339H292Q298 361 306 385Q312 405 320 428T338 474L371 552H540L392 290L553 0H369L321 99Q312 118 304 140T288 183Q280 206 274 229H270Q263 206 256
183Q250 163 242 141T224 99L175 0H6L170 286Z" />
<glyph unicode="y" glyph-name="y" horiz-adv-x="545" d="M127 -206Q114 -206 99 -205T70 -201T44 -195T24 -188V-72Q37 -75 53 -77T82 -79Q127 -79 149 -63T182 -17L193 12L-3 552H170L225 383Q236 351 244 305T261 215Q269 165 277 111H280Q288 164 297 214Q305
257 314 303T333 383L384 552H544L344 -42Q330 -83 313 -114T270 -165T210 -196T127 -206Z" />
<glyph unicode="z" glyph-name="z" horiz-adv-x="481" d="M23 123L182 329Q196 348 213 365T244 396Q261 412 277 426V429H32V552H457V440L291 223Q277 205 260 188T228 156Q210 140 193 126V123H454V0H23V123Z" />
<glyph unicode="{" glyph-name="braceleft" horiz-adv-x="445" d="M414 -127Q331 -126 277 -112T190 -72T144 -10T131 73V168Q131 212 105 229T25 250V393Q79 396 105 414T131 476V571Q131 617 144 653T189 716T276 756T414 771V644Q382 642 360 637T324 622T304
594T298 549V455Q298 430 292 409T271 371T230 342T164 323V320Q204 314 230 302T271 273T292 235T298 188V94Q298 67 304 50T324 23T360 7T414 0V-127V-127Z" />
<glyph unicode="|" glyph-name="bar" horiz-adv-x="295" d="M81 769H213V-125H81V769Z" />
<glyph unicode="}" glyph-name="braceright" horiz-adv-x="445" d="M31 -127V0Q63 2 85 7T121 22T141 50T147 94V188Q147 213 153 234T174 273T215 302T281 320V323Q241 330 215 342T174 371T153 409T147 455V549Q147 576 141 593T121 621T85 637T31 644V771Q114
770 168 756T255 716T301 654T314 571V476Q314 432 340 414T420 393V250Q366 247 340 230T314 168V73Q314 27 301 -9T256 -72T169 -112T31 -127Z" />
<glyph unicode="~" glyph-name="asciitilde" horiz-adv-x="471" d="M20 222Q24 273 37 307T70 361T113 390T161 399Q183 399 202 393T238 381T268 368T292 362Q321 362 331 400H450Q447 349 434 315T401 260T357 232T309 223Q287 223 268 229T233 241T202 254T178
260Q162 260 154 250T141 222H20V222Z" />
<glyph unicode="&#xa0;" glyph-name="uni00A0" horiz-adv-x="206" />
<glyph unicode="&#xa1;" glyph-name="exclamdown" horiz-adv-x="298" d="M244 -124H53L81 331H216L244 -124ZM230 439H65V597H230V439Z" />
<glyph unicode="&#xa2;" glyph-name="cent" horiz-adv-x="483" d="M403 553Q421 548 434 544T456 534V409Q441 416 425 421T383 430L333 119Q383 121 413 129T460 144V27Q440 14 405 4T313 -9L290 -153H200L224 -3Q179 4 143 22T81 70T41 143T27 245V299Q27 366
46 415T101 498T188 547T302 563H315L330 656H420L403 553ZM194 255Q194 213 206 183T246 135L293 430Q246 423 220 396T194 312V255Z" />
<glyph unicode="&#xa3;" glyph-name="sterling" horiz-adv-x="562" d="M41 415H106V487Q106 551 125 597T179 674T261 718T362 733Q428 733 464 723T521 701V569Q495 577 472 581T413 585Q388 585 367 580T330 562T303 526T291 468L287 415H448V294H280V291Q276
234 256 198T189 139V136H531V0H35V129Q67 146 86 176T106 258V294H41V415Z" />
<glyph unicode="&#xa5;" glyph-name="yen" horiz-adv-x="639" d="M62 381H200L18 721H211L262 613Q276 581 288 546T310 481Q321 446 329 412H332Q338 446 348 481Q356 511 368 546T395 613L447 721H621L439 381H578V275H413V207H578V101H413V0H227V101H62V207H227V275H62V381Z"
/>
<glyph unicode="&#xa6;" glyph-name="brokenbar" horiz-adv-x="295" d="M81 262H213V-125H81V262ZM81 766H213V397H81V766Z" />
<glyph unicode="&#xa7;" glyph-name="section" horiz-adv-x="571" d="M261 -137Q203 -137 154 -127T70 -97V32Q105 18 144 7T238 -4Q332 -4 332 44Q332 68 317 78T263 99L196 116Q158 125 127 138T74 171T40 219T27 286Q27 381 130 416Q104 438 88 470T71 550Q71
636 127 684T300 733Q363 733 403 724T474 700V572Q445 582 408 592T320 602Q279 602 259 592T238 557Q238 534 251 524T299 505L371 486Q414 475 447 462T502 429T536 382T548 314Q548 216 447 181Q474 160 489 130T504 55Q504 -137 261 -137ZM226 370Q204 363
194 350T183 318Q183 306 186 297T199 279T224 265T265 251L345 228Q367 236 377 249T387 281Q387 305 369 320T298 351L226 370Z" />
<glyph unicode="&#xa8;" glyph-name="dieresis" horiz-adv-x="500" d="M288 762H437V628H288V762ZM62 762H211V628H62V762Z" />
<glyph unicode="&#xa9;" glyph-name="copyright" horiz-adv-x="806" d="M403 -15Q326 -15 260 14T145 94T69 213T41 358Q41 435 68 502T145 620T260 699T403 728Q479 728 545 699T660 620T737 503T765 358Q765 281 737 213T660 95T545 15T403 -15ZM403 42Q467
42 521 65T615 131T677 231T700 358Q700 427 678 484T615 583T521 648T403 671Q339 671 285 648T191 584T129 485T106 358Q106 289 128 231T190 131T284 66T403 42ZM422 160Q337 160 287 203T236 339V371Q236 422 251 457T292 513T352 545T425 555Q461 555 485
550T526 536V443Q512 448 494 452T452 456Q413 456 390 440T367 380V342Q367 296 387 277T453 258Q479 258 497 262T528 272V182Q510 174 485 167T422 160Z" />
<glyph unicode="&#xaa;" glyph-name="ordfeminine" horiz-adv-x="479" d="M222 328Q263 328 281 348V438L225 432Q196 429 185 417T174 377Q174 349 187 339T222 328ZM169 224Q104 224 66 258T27 362Q27 401 39 428T72 473T125 501T194 516L281 527V547Q281 582
261 595T188 608Q153 608 120 604T62 594V703Q135 732 247 732Q289 732 324 724T383 698T421 652T435 581V233H306L296 272H290Q276 250 245 237T169 224Z" />
<glyph unicode="&#xab;" glyph-name="guillemotleft" horiz-adv-x="574" d="M37 240V285L159 501H295L178 263L295 24H159L37 240ZM276 240V285L398 501H534L417 263L534 24H398L276 240Z" />
<glyph unicode="&#xae;" glyph-name="registered" horiz-adv-x="596" d="M189 586H320Q368 586 392 565T416 506Q416 484 406 468T377 445V442L428 341H340L302 422H273V341H189V586ZM298 230Q344 230 383 248T452 297T498 368T515 456Q515 503 499 544T453 617T384
665T298 682Q251 682 212 665T144 617T99 545T83 456Q83 409 99 368T144 297T212 249T298 230ZM270 470H308Q336 470 336 499Q336 513 329 521T308 529H270V470ZM298 177Q242 177 192 199T105 259T45 348T23 456Q23 514 45 565T104 654T192 713T298 735Q355 735
405 714T492 654T551 565T573 456Q573 399 552 349T493 260T405 199T298 177Z" />
<glyph unicode="&#xaf;" glyph-name="macron" horiz-adv-x="500" d="M95 762H404V646H95V762Z" />
<glyph unicode="&#xb0;" glyph-name="degree" horiz-adv-x="438" d="M219 372Q179 372 146 386T88 424T49 481T35 551Q35 588 49 620T87 677T145 716T219 730Q259 730 292 716T350 678T389 621T403 551Q403 514 389 482T351 425T293 386T219 372ZM219 457Q259
457 282 484T305 551Q305 589 282 617T219 645Q179 645 156 617T133 551Q133 512 156 485T219 457Z" />
<glyph unicode="&#xb1;" glyph-name="plusminus" horiz-adv-x="574" d="M215 340H45V476H215V628H359V476H529V340H359V188H215V340ZM45 0V136H529V0H45Z" />
<glyph unicode="&#xb4;" glyph-name="acute" horiz-adv-x="500" d="M231 793H407L304 624H164L231 793Z" />
<glyph unicode="&#xb6;" glyph-name="paragraph" horiz-adv-x="616" d="M266 338H246Q200 338 162 351T97 388T54 447T39 528Q39 570 52 605T92 666T162 706T261 721H555V-125H459V627H362V-125H266V338Z" />
<glyph unicode="&#xb7;" glyph-name="periodcentered" horiz-adv-x="266" d="M51 408H215V250H51V408Z" />
<glyph unicode="&#xb8;" glyph-name="cedilla" horiz-adv-x="500" d="M136 -181Q170 -178 193 -175T229 -167T248 -155T254 -138Q254 -121 237 -115T177 -107V0H260V-49Q319 -51 345 -74T372 -137Q372 -163 360 -183T319 -218T246 -241T136 -253V-181Z" />
<glyph unicode="&#xba;" glyph-name="ordmasculine" horiz-adv-x="522" d="M260 224Q144 224 87 282T29 447V503Q29 560 46 602T94 674T167 717T260 732Q378 732 435 675T492 508V452Q492 395 475 353T427 282T354 239T260 224ZM261 338Q298 338 316 361T335 445V506Q335
541 330 563T315 598T291 614T259 618Q223 618 205 595T186 510V449Q186 415 191 393T206 359T230 343T261 338Z" />
<glyph unicode="&#xbb;" glyph-name="guillemotright" horiz-adv-x="574" d="M395 262L278 501H414L537 285V240L414 24H278L395 262ZM156 262L40 501H175L297 285V240L175 24H40L156 262Z" />
<glyph unicode="&#xbc;" glyph-name="onequarter" horiz-adv-x="914" d="M124 571L20 560V654L180 723H275V265H124V571ZM631 742H750L289 -42H171L631 742ZM683 -72V20H491V119L689 386H826V121H889V20H826V-72H683ZM567 114Q578 115 590 116Q601 117 614 118T641
119H688V199Q688 212 688 226T691 252Q692 266 694 279H692Q687 263 680 247Q674 233 666 218T647 189L633 171Q622 158 611 148T590 131Q579 122 567 116V114Z" />
<glyph unicode="&#xbd;" glyph-name="onehalf" horiz-adv-x="935" d="M124 571L20 560V654L180 723H275V265H124V571ZM631 742H750L289 -42H171L631 742ZM579 29L666 103Q708 138 731 165T755 220V228Q755 257 736 267T682 278Q650 278 626 271T584 257V364Q607
375 643 384T731 393Q817 393 863 358T910 257V246Q910 191 878 151T791 73L744 40V37H914V-72H579V29Z" />
<glyph unicode="&#xbe;" glyph-name="threequarters" horiz-adv-x="941" d="M173 257Q120 257 83 265T23 285V379Q44 374 71 369T128 364Q176 364 194 375T213 410Q213 430 201 438T158 447H91V544H155Q187 544 198 554T210 584Q210 622 136 622Q107 622 81 618T36
608V704Q62 714 100 722T183 730Q259 730 305 701T351 612Q351 570 325 543T255 505V501Q307 493 336 470T365 395Q365 331 315 294T173 257ZM659 742H778L317 -42H199L659 742ZM710 -72V20H518V119L716 386H853V121H916V20H853V-72H710ZM594 114Q605 115 617 116Q628
117 641 118T668 119H715V199Q715 212 715 226T718 252Q719 266 721 279H719Q714 263 707 247Q701 233 693 218T674 189L660 171Q649 158 638 148T617 131Q606 122 594 116V114Z" />
<glyph unicode="&#xbf;" glyph-name="questiondown" horiz-adv-x="456" d="M352 294Q352 267 348 248T334 214T310 185T274 154Q257 140 245 130T224 110T212 89T208 64Q208 33 228 17T301 1Q343 1 374 8T431 24V-100Q396 -116 352 -126T247 -137Q199 -137 159
-128T90 -97T44 -43T27 38Q27 74 34 99T54 144T87 182T132 219Q155 236 169 248T191 270T203 290T206 315V330H352V294ZM360 438H196V596H360V438Z" />
<glyph unicode="&#xc0;" glyph-name="Agrave" horiz-adv-x="698" d="M251 721H449L688 0H495L453 135H214L174 0H9L251 721ZM250 252H417L383 365Q372 400 364 441T349 520Q342 563 336 606H331Q325 563 318 520Q312 483 303 441T284 365L250 252ZM180 964H356L423
795H283L180 964Z" />
<glyph unicode="&#xc1;" glyph-name="Aacute" horiz-adv-x="698" d="M251 721H449L688 0H495L453 135H214L174 0H9L251 721ZM250 252H417L383 365Q372 400 364 441T349 520Q342 563 336 606H331Q325 563 318 520Q312 483 303 441T284 365L250 252ZM417 795H277L344
964H520L417 795Z" />
<glyph unicode="&#xc2;" glyph-name="Acircumflex" horiz-adv-x="698" d="M251 721H449L688 0H495L453 135H214L174 0H9L251 721ZM250 252H417L383 365Q372 400 364 441T349 520Q342 563 336 606H331Q325 563 318 520Q312 483 303 441T284 365L250 252ZM279 979H410L538
794H419L345 869L270 794H151L279 979Z" />
<glyph unicode="&#xc3;" glyph-name="Atilde" horiz-adv-x="698" d="M251 721H449L688 0H495L453 135H214L174 0H9L251 721ZM250 252H417L383 365Q372 400 364 441T349 520Q342 563 336 606H331Q325 563 318 520Q312 483 303 441T284 365L250 252ZM154 798Q157
841 169 871T199 919T239 946T283 954Q302 954 319 948T352 936T380 923T404 917Q431 917 439 953H546Q543 910 531 880T500 832T460 805T416 797Q396 797 379 803T348 815T320 828T297 834Q283 834 274 825T261 798H154V798Z" />
<glyph unicode="&#xc4;" glyph-name="Adieresis" horiz-adv-x="698" d="M251 721H449L688 0H495L453 135H214L174 0H9L251 721ZM250 252H417L383 365Q372 400 364 441T349 520Q342 563 336 606H331Q325 563 318 520Q312 483 303 441T284 365L250 252ZM375 933H534V799H375V933ZM155
933H314V799H155V933Z" />
<glyph unicode="&#xc5;" glyph-name="Aring" horiz-adv-x="698" d="M251 721H449L688 0H495L453 135H214L174 0H9L251 721ZM250 252H417L383 365Q372 400 364 441T349 520Q342 563 336 606H331Q325 563 318 520Q312 483 303 441T284 365L250 252ZM345 761Q317
761 293 770T252 796T224 836T214 886Q214 913 224 936T251 975T293 1001T345 1011Q373 1011 397 1002T438 976T466 936T476 886Q476 859 466 836T439 797T397 771T345 761ZM345 841Q365 841 377 853T389 886Q389 906 377 918T345 931Q325 931 313 919T301 886Q301
866 313 854T345 841Z" />
<glyph unicode="&#xc6;" glyph-name="AE" horiz-adv-x="954" d="M365 721H906V573H618V438H843V298H618V148H916V0H435V139H236L171 0H4L365 721ZM291 256H435V363Q435 401 435 444T438 526Q440 570 442 615H438Q424 572 409 530Q396 494 380 453T347 376L291 256Z" />
<glyph unicode="&#xc7;" glyph-name="Ccedilla" horiz-adv-x="573" d="M218 -181Q252 -178 275 -175T311 -167T330 -155T336 -138Q336 -121 319 -115T259 -107V-2Q152 20 93 98T33 321V396Q33 491 59 555T131 659T238 716T368 733Q431 733 472 725T544 701V555Q511
566 479 574T403 582Q361 582 329 574T275 546T242 493T231 411V329Q231 280 239 244T266 185T318 151T398 139Q451 139 487 150T549 173V27Q514 10 470 -1T358 -12H342V-49Q401 -51 427 -74T454 -137Q454 -163 442 -183T401 -218T328 -241T218 -253V-181Z" />
<glyph unicode="&#xc8;" glyph-name="Egrave" horiz-adv-x="579" d="M60 721H531V573H243V438H468V298H243V148H541V0H60V721ZM135 964H311L378 795H238L135 964Z" />
<glyph unicode="&#xc9;" glyph-name="Eacute" horiz-adv-x="579" d="M60 721H531V573H243V438H468V298H243V148H541V0H60V721ZM372 795H232L299 964H475L372 795Z" />
<glyph unicode="&#xca;" glyph-name="Ecircumflex" horiz-adv-x="579" d="M60 721H531V573H243V438H468V298H243V148H541V0H60V721ZM236 979H367L495 794H376L302 869L227 794H108L236 979Z" />
<glyph unicode="&#xcb;" glyph-name="Edieresis" horiz-adv-x="579" d="M60 721H531V573H243V438H468V298H243V148H541V0H60V721ZM333 933H492V799H333V933ZM113 933H272V799H113V933Z" />
<glyph unicode="&#xcc;" glyph-name="Igrave" horiz-adv-x="306" d="M60 721H246V0H60V721ZM239 964H415L482 795H342L239 964Z" />
<glyph unicode="&#xcd;" glyph-name="Iacute" horiz-adv-x="306" d="M60 721H246V0H60V721ZM477 795H337L404 964H580L477 795Z" />
<glyph unicode="&#xce;" glyph-name="Icircumflex" horiz-adv-x="306" d="M60 721H246V0H60V721ZM344 979H475L603 794H484L410 869L335 794H216L344 979Z" />
<glyph unicode="&#xcf;" glyph-name="Idieresis" horiz-adv-x="306" d="M184 938H343V804H184V938ZM-36 938H123V804H-36V938ZM60 721H246V0H60V721Z" />
<glyph unicode="&#xd0;" glyph-name="Eth" horiz-adv-x="694" d="M60 292H6V430H60V721H320Q401 721 464 705T571 651T638 553T661 403V329Q661 242 638 180T572 77T465 19T321 0H60V292ZM317 145Q355 145 383 152T429 179T456 232T465 319V406Q465 459 455 492T426
544T378 569T313 576H247V430H367V292H247V145H317Z" />
<glyph unicode="&#xd1;" glyph-name="Ntilde" horiz-adv-x="711" d="M60 721H265L379 520Q396 488 417 443T456 354Q477 304 498 251H501Q497 309 493 363Q490 409 488 458T486 540V721H651V0H472L333 245Q316 275 296 322T257 415Q236 468 215 524H211Q214 462
218 404Q219 379 220 353T223 302T225 254T226 213V0H60V721ZM169 798Q172 841 184 871T214 919T254 946T298 954Q317 954 334 948T367 936T395 923T419 917Q446 917 454 953H561Q558 910 546 880T515 832T475 805T431 797Q411 797 394 803T363 815T335 828T312
834Q298 834 289 825T276 798H169V798Z" />
<glyph unicode="&#xd2;" glyph-name="Ograve" horiz-adv-x="718" d="M359 -12Q290 -12 230 6T127 65T58 168T33 322V396Q33 488 59 552T131 656T235 715T362 733Q432 733 491 715T593 657T660 554T685 400V326Q685 234 659 170T589 66T486 7T359 -12ZM359 127Q426
127 457 172T489 314V400Q489 453 482 490T460 550T420 583T359 594Q292 594 261 550T229 410V324Q229 269 236 232T259 171T299 137T359 127ZM191 964H367L434 795H294L191 964Z" />
<glyph unicode="&#xd3;" glyph-name="Oacute" horiz-adv-x="718" d="M359 -12Q290 -12 230 6T127 65T58 168T33 322V396Q33 488 59 552T131 656T235 715T362 733Q432 733 491 715T593 657T660 554T685 400V326Q685 234 659 170T589 66T486 7T359 -12ZM359 127Q426
127 457 172T489 314V400Q489 453 482 490T460 550T420 583T359 594Q292 594 261 550T229 410V324Q229 269 236 232T259 171T299 137T359 127ZM424 795H284L351 964H527L424 795Z" />
<glyph unicode="&#xd4;" glyph-name="Ocircumflex" horiz-adv-x="718" d="M359 -12Q290 -12 230 6T127 65T58 168T33 322V396Q33 488 59 552T131 656T235 715T362 733Q432 733 491 715T593 657T660 554T685 400V326Q685 234 659 170T589 66T486 7T359 -12ZM359
127Q426 127 457 172T489 314V400Q489 453 482 490T460 550T420 583T359 594Q292 594 261 550T229 410V324Q229 269 236 232T259 171T299 137T359 127ZM294 979H425L553 794H434L360 869L285 794H166L294 979Z" />
<glyph unicode="&#xd5;" glyph-name="Otilde" horiz-adv-x="718" d="M359 -12Q290 -12 230 6T127 65T58 168T33 322V396Q33 488 59 552T131 656T235 715T362 733Q432 733 491 715T593 657T660 554T685 400V326Q685 234 659 170T589 66T486 7T359 -12ZM359 127Q426
127 457 172T489 314V400Q489 453 482 490T460 550T420 583T359 594Q292 594 261 550T229 410V324Q229 269 236 232T259 171T299 137T359 127ZM163 798Q166 841 178 871T208 919T248 946T292 954Q311 954 328 948T361 936T389 923T413 917Q440 917 448 953H555Q552
910 540 880T509 832T469 805T425 797Q405 797 388 803T357 815T329 828T306 834Q292 834 283 825T270 798H163V798Z" />
<glyph unicode="&#xd6;" glyph-name="Odieresis" horiz-adv-x="718" d="M359 -12Q290 -12 230 6T127 65T58 168T33 322V396Q33 488 59 552T131 656T235 715T362 733Q432 733 491 715T593 657T660 554T685 400V326Q685 234 659 170T589 66T486 7T359 -12ZM359 127Q426
127 457 172T489 314V400Q489 453 482 490T460 550T420 583T359 594Q292 594 261 550T229 410V324Q229 269 236 232T259 171T299 137T359 127ZM390 933H549V799H390V933ZM170 933H329V799H170V933Z" />
<glyph unicode="&#xd7;" glyph-name="multiply" horiz-adv-x="590" d="M52 181L197 326L52 471L149 569L295 423L442 569L539 471L393 326L539 181L442 83L295 228L149 83L52 181Z" />
<glyph unicode="&#xd8;" glyph-name="Oslash" horiz-adv-x="718" d="M359 -12Q275 -12 205 20L152 -62H25L118 83Q79 125 56 184T33 322V396Q33 488 59 552T131 656T235 715T362 733Q444 733 514 701L554 762H682L602 638Q640 596 662 538T685 400V326Q685 234
659 170T589 66T486 7T359 -12ZM214 324Q214 299 215 278T218 240L440 585Q411 599 358 599Q289 599 252 554T214 410V324ZM359 121Q428 121 466 168T504 314V400Q504 423 503 442T500 479L278 135Q307 121 359 121Z" />
<glyph unicode="&#xd9;" glyph-name="Ugrave" horiz-adv-x="691" d="M351 -12Q203 -12 129 50T55 243V721H242V250Q242 182 270 157T356 132Q415 132 442 157T469 251V721H635V245Q635 113 567 51T351 -12ZM186 964H362L429 795H289L186 964Z" />
<glyph unicode="&#xda;" glyph-name="Uacute" horiz-adv-x="691" d="M351 -12Q203 -12 129 50T55 243V721H242V250Q242 182 270 157T356 132Q415 132 442 157T469 251V721H635V245Q635 113 567 51T351 -12ZM418 795H278L345 964H521L418 795Z" />
<glyph unicode="&#xdb;" glyph-name="Ucircumflex" horiz-adv-x="691" d="M351 -12Q203 -12 129 50T55 243V721H242V250Q242 182 270 157T356 132Q415 132 442 157T469 251V721H635V245Q635 113 567 51T351 -12ZM286 979H417L545 794H426L352 869L277 794H158L286 979Z" />
<glyph unicode="&#xdc;" glyph-name="Udieresis" horiz-adv-x="691" d="M351 -12Q203 -12 129 50T55 243V721H242V250Q242 182 270 157T356 132Q415 132 442 157T469 251V721H635V245Q635 113 567 51T351 -12ZM386 933H545V799H386V933ZM166 933H325V799H166V933Z" />
<glyph unicode="&#xdd;" glyph-name="Yacute" horiz-adv-x="640" d="M227 282L8 721H201L252 608Q266 577 279 540T304 469Q317 430 329 392H332Q343 430 355 469Q366 502 378 539T405 608L456 721H631L413 282V0H227V282ZM393 795H253L320 964H496L393 795Z" />
<glyph unicode="&#xde;" glyph-name="Thorn" horiz-adv-x="635" d="M60 721H247V604H349Q417 604 466 588T548 542T595 471T611 380Q611 269 546 206T352 143H247V0H60V721ZM325 275Q379 275 399 296T420 370Q420 400 415 418T399 448T371 463T329 467H247V275H325Z" />
<glyph unicode="&#xdf;" glyph-name="germandbls" horiz-adv-x="605" d="M350 -8Q322 -8 303 -5T273 3V127Q282 124 296 122T323 120Q361 120 384 141T407 212Q407 276 380 312T286 366V479Q333 484 358 506T383 573Q383 656 302 656Q264 656 241 632T218 549V0H51V549Q51
664 119 721T305 778Q423 778 484 727T545 588Q545 521 509 484T405 429V424Q493 397 535 346T577 203Q577 101 523 47T350 -8Z" />
<glyph unicode="&#xe0;" glyph-name="agrave" horiz-adv-x="527" d="M188 -10Q115 -10 70 30T24 149Q24 192 37 221T75 270T135 300T213 317L313 330V358Q313 397 290 411T207 426Q167 426 132 422T68 410V530Q150 563 271 563Q374 563 427 522T480 383V0H341L329
53H323Q306 24 272 7T188 -10ZM246 95Q266 95 284 101T313 118V241L247 234Q215 230 200 214T185 163Q185 125 202 110T246 95ZM98 793H274L341 624H201L98 793Z" />
<glyph unicode="&#xe1;" glyph-name="aacute" horiz-adv-x="527" d="M188 -10Q115 -10 70 30T24 149Q24 192 37 221T75 270T135 300T213 317L313 330V358Q313 397 290 411T207 426Q167 426 132 422T68 410V530Q150 563 271 563Q374 563 427 522T480 383V0H341L329
53H323Q306 24 272 7T188 -10ZM246 95Q266 95 284 101T313 118V241L247 234Q215 230 200 214T185 163Q185 125 202 110T246 95ZM245 793H421L318 624H178L245 793Z" />
<glyph unicode="&#xe2;" glyph-name="acircumflex" horiz-adv-x="527" d="M188 -10Q115 -10 70 30T24 149Q24 192 37 221T75 270T135 300T213 317L313 330V358Q313 397 290 411T207 426Q167 426 132 422T68 410V530Q150 563 271 563Q374 563 427 522T480 383V0H341L329
53H323Q306 24 272 7T188 -10ZM246 95Q266 95 284 101T313 118V241L247 234Q215 230 200 214T185 163Q185 125 202 110T246 95ZM198 808H329L457 623H338L264 698L189 623H70L198 808Z" />
<glyph unicode="&#xe3;" glyph-name="atilde" horiz-adv-x="527" d="M188 -10Q115 -10 70 30T24 149Q24 192 37 221T75 270T135 300T213 317L313 330V358Q313 397 290 411T207 426Q167 426 132 422T68 410V530Q150 563 271 563Q374 563 427 522T480 383V0H341L329
53H323Q306 24 272 7T188 -10ZM246 95Q266 95 284 101T313 118V241L247 234Q215 230 200 214T185 163Q185 125 202 110T246 95ZM67 627Q70 670 82 700T112 748T152 775T196 783Q215 783 232 777T265 765T293 752T317 746Q344 746 352 782H459Q456 739 444 709T413
661T373 634T329 626Q309 626 292 632T261 644T233 657T210 663Q196 663 187 654T174 627H67V627Z" />
<glyph unicode="&#xe4;" glyph-name="adieresis" horiz-adv-x="527" d="M188 -10Q115 -10 70 30T24 149Q24 192 37 221T75 270T135 300T213 317L313 330V358Q313 397 290 411T207 426Q167 426 132 422T68 410V530Q150 563 271 563Q374 563 427 522T480 383V0H341L329
53H323Q306 24 272 7T188 -10ZM246 95Q266 95 284 101T313 118V241L247 234Q215 230 200 214T185 163Q185 125 202 110T246 95ZM302 762H451V628H302V762ZM76 762H225V628H76V762Z" />
<glyph unicode="&#xe5;" glyph-name="aring" horiz-adv-x="527" d="M188 -10Q115 -10 70 30T24 149Q24 192 37 221T75 270T135 300T213 317L313 330V358Q313 397 290 411T207 426Q167 426 132 422T68 410V530Q150 563 271 563Q374 563 427 522T480 383V0H341L329
53H323Q306 24 272 7T188 -10ZM246 95Q266 95 284 101T313 118V241L247 234Q215 230 200 214T185 163Q185 125 202 110T246 95ZM266 616Q238 616 214 625T173 651T145 691T135 741Q135 768 145 791T172 830T214 856T266 866Q294 866 318 857T359 831T387 791T397
741Q397 714 387 691T360 652T318 626T266 616ZM266 696Q286 696 298 708T310 741Q310 761 298 773T266 786Q246 786 234 774T222 741Q222 721 234 709T266 696Z" />
<glyph unicode="&#xe6;" glyph-name="ae" horiz-adv-x="841" d="M190 -10Q117 -10 72 30T26 149Q26 192 39 221T77 270T137 300T215 317L317 330V358Q317 397 293 411T209 426Q169 426 134 422T70 410V530Q112 547 158 555T265 563Q318 563 356 550T417 504Q474
563 569 563Q694 563 753 498T813 299V225H487Q489 193 498 173T525 141T570 125T634 120Q682 120 721 128T792 147V34Q762 18 713 4T591 -10Q513 -10 459 10T371 72Q339 30 292 10T190 -10ZM337 133Q320 177 317 241L249 234Q216 231 202 215T187 163Q187 125
204 110T248 95Q275 95 299 105T337 133ZM569 446Q551 446 536 442T510 424T491 389T483 330H652Q652 365 646 387T630 423T604 441T569 446Z" />
<glyph unicode="&#xe7;" glyph-name="ccedilla" horiz-adv-x="465" d="M381 -137Q381 -163 369 -183T328 -218T255 -241T145 -253V-181Q179 -178 202 -175T238 -167T257 -155T263 -138Q263 -121 246 -115T186 -107V2Q108 24 68 84T27 245V299Q27 432 97 497T292
563Q346 563 379 555T437 534V405Q424 411 412 415T387 423T358 427T321 429Q263 429 230 403T196 312V255Q196 183 225 153T324 123Q363 123 392 131T441 148V27Q418 13 380 2T284 -10H269V-49Q328 -51 354 -74T381 -137Z" />
<glyph unicode="&#xe8;" glyph-name="egrave" horiz-adv-x="552" d="M304 -10Q27 -10 27 250V304Q27 427 95 495T282 563Q407 563 466 498T526 299V225H196Q201 162 237 141T347 120Q395 120 434 128T505 147V34Q475 18 426 4T304 -10ZM282 446Q264 446 248 442T220
424T200 389T191 330H365Q365 365 359 387T343 423T317 441T282 446ZM109 793H285L352 624H212L109 793Z" />
<glyph unicode="&#xe9;" glyph-name="eacute" horiz-adv-x="552" d="M304 -10Q27 -10 27 250V304Q27 427 95 495T282 563Q407 563 466 498T526 299V225H196Q201 162 237 141T347 120Q395 120 434 128T505 147V34Q475 18 426 4T304 -10ZM282 446Q264 446 248 442T220
424T200 389T191 330H365Q365 365 359 387T343 423T317 441T282 446ZM269 793H445L342 624H202L269 793Z" />
<glyph unicode="&#xea;" glyph-name="ecircumflex" horiz-adv-x="552" d="M304 -10Q27 -10 27 250V304Q27 427 95 495T282 563Q407 563 466 498T526 299V225H196Q201 162 237 141T347 120Q395 120 434 128T505 147V34Q475 18 426 4T304 -10ZM282 446Q264 446 248
442T220 424T200 389T191 330H365Q365 365 359 387T343 423T317 441T282 446ZM212 808H343L471 623H352L278 698L203 623H84L212 808Z" />
<glyph unicode="&#xeb;" glyph-name="edieresis" horiz-adv-x="552" d="M304 -10Q27 -10 27 250V304Q27 427 95 495T282 563Q407 563 466 498T526 299V225H196Q201 162 237 141T347 120Q395 120 434 128T505 147V34Q475 18 426 4T304 -10ZM282 446Q264 446 248
442T220 424T200 389T191 330H365Q365 365 359 387T343 423T317 441T282 446ZM317 762H466V628H317V762ZM91 762H240V628H91V762Z" />
<glyph unicode="&#xec;" glyph-name="igrave" horiz-adv-x="270" d="M51 552H219V0H51V552ZM222 793H398L465 624H325L222 793Z" />
<glyph unicode="&#xed;" glyph-name="iacute" horiz-adv-x="270" d="M51 552H219V0H51V552ZM386 793H562L459 624H319L386 793Z" />
<glyph unicode="&#xee;" glyph-name="icircumflex" horiz-adv-x="270" d="M51 552H219V0H51V552ZM326 808H457L585 623H466L392 698L317 623H198L326 808Z" />
<glyph unicode="&#xef;" glyph-name="idieresis" horiz-adv-x="270" d="M169 762H310V628H169V762ZM-33 762H108V628H-33V762ZM51 552H219V0H51V552Z" />
<glyph unicode="&#xf0;" glyph-name="eth" horiz-adv-x="580" d="M419 659Q446 630 470 595T512 520T541 433T552 334V259Q552 188 533 138T479 54T396 6T290 -10Q159 -10 94 55T28 238V295Q28 356 45 401T93 476T166 520T257 535Q283 535 305 529T348 508H349Q334
536 315 563T274 617L122 573V663L207 688Q181 713 157 733T112 769H282Q296 761 312 751T344 727L499 772V682L419 659ZM290 111Q312 111 329 117T358 137T376 176T382 235V301Q382 368 372 409Q360 417 339 423T291 429Q246 429 222 403T198 306V240Q198 199
204 174T223 135T252 116T290 111Z" />
<glyph unicode="&#xf1;" glyph-name="ntilde" horiz-adv-x="588" d="M51 552H212V484H217Q285 563 385 563Q459 563 500 528T541 411V0H373V363Q373 397 358 410T304 424Q281 424 258 418T218 404V0H51V552ZM99 627Q102 670 114 700T144 748T184 775T228 783Q247
783 264 777T297 765T325 752T349 746Q376 746 384 782H491Q488 739 476 709T445 661T405 634T361 626Q341 626 324 632T293 644T265 657T242 663Q228 663 219 654T206 627H99V627Z" />
<glyph unicode="&#xf2;" glyph-name="ograve" horiz-adv-x="580" d="M290 -10Q159 -10 94 56T28 247V299Q28 365 47 414T102 497T185 546T290 563Q421 563 486 497T552 305V254Q552 188 533 139T479 56T396 7T290 -10ZM292 111Q314 111 331 117T359 139T376 180T382
244V302Q382 347 376 374T357 416T328 436T290 441Q245 441 222 412T198 307V249Q198 205 205 178T224 136T254 116T292 111ZM121 793H297L364 624H224L121 793Z" />
<glyph unicode="&#xf3;" glyph-name="oacute" horiz-adv-x="580" d="M290 -10Q159 -10 94 56T28 247V299Q28 365 47 414T102 497T185 546T290 563Q421 563 486 497T552 305V254Q552 188 533 139T479 56T396 7T290 -10ZM292 111Q314 111 331 117T359 139T376 180T382
244V302Q382 347 376 374T357 416T328 436T290 441Q245 441 222 412T198 307V249Q198 205 205 178T224 136T254 116T292 111ZM283 793H459L356 624H216L283 793Z" />
<glyph unicode="&#xf4;" glyph-name="ocircumflex" horiz-adv-x="580" d="M290 -10Q159 -10 94 56T28 247V299Q28 365 47 414T102 497T185 546T290 563Q421 563 486 497T552 305V254Q552 188 533 139T479 56T396 7T290 -10ZM292 111Q314 111 331 117T359 139T376
180T382 244V302Q382 347 376 374T357 416T328 436T290 441Q245 441 222 412T198 307V249Q198 205 205 178T224 136T254 116T292 111ZM224 808H355L483 623H364L290 698L215 623H96L224 808Z" />
<glyph unicode="&#xf5;" glyph-name="otilde" horiz-adv-x="580" d="M290 -10Q159 -10 94 56T28 247V299Q28 365 47 414T102 497T185 546T290 563Q421 563 486 497T552 305V254Q552 188 533 139T479 56T396 7T290 -10ZM292 111Q314 111 331 117T359 139T376 180T382
244V302Q382 347 376 374T357 416T328 436T290 441Q245 441 222 412T198 307V249Q198 205 205 178T224 136T254 116T292 111ZM95 627Q98 670 110 700T140 748T180 775T224 783Q243 783 260 777T293 765T321 752T345 746Q372 746 380 782H487Q484 739 472 709T441
661T401 634T357 626Q337 626 320 632T289 644T261 657T238 663Q224 663 215 654T202 627H95V627Z" />
<glyph unicode="&#xf6;" glyph-name="odieresis" horiz-adv-x="580" d="M290 -10Q159 -10 94 56T28 247V299Q28 365 47 414T102 497T185 546T290 563Q421 563 486 497T552 305V254Q552 188 533 139T479 56T396 7T290 -10ZM292 111Q314 111 331 117T359 139T376
180T382 244V302Q382 347 376 374T357 416T328 436T290 441Q245 441 222 412T198 307V249Q198 205 205 178T224 136T254 116T292 111ZM329 762H478V628H329V762ZM103 762H252V628H103V762Z" />
<glyph unicode="&#xf7;" glyph-name="divide" horiz-adv-x="573" d="M45 420H529V284H45V420ZM204 205H368V47H204V205ZM204 657H368V499H204V657Z" />
<glyph unicode="&#xf8;" glyph-name="oslash" horiz-adv-x="580" d="M290 -10Q257 -10 228 -5T172 11L124 -62H13L96 62Q63 96 46 143T28 247V299Q28 365 47 414T102 497T185 546T290 563Q359 563 412 539L449 595H559L487 487Q519 453 535 408T552 305V254Q552
188 533 139T479 56T396 7T290 -10ZM187 249Q187 236 187 225T189 204L342 433Q320 444 290 444Q245 444 216 414T187 307V249ZM292 108Q314 108 333 114T365 137T386 179T394 244V302Q394 313 394 323T392 342L242 117Q253 112 265 110T292 108Z" />
<glyph unicode="&#xf9;" glyph-name="ugrave" horiz-adv-x="581" d="M202 -11Q128 -11 88 28T47 148V552H214V189Q214 155 227 140T278 124Q301 124 323 131T362 147V552H530V0H383L371 68H366Q331 29 292 9T202 -11ZM118 793H294L361 624H221L118 793Z" />
<glyph unicode="&#xfa;" glyph-name="uacute" horiz-adv-x="581" d="M202 -11Q128 -11 88 28T47 148V552H214V189Q214 155 227 140T278 124Q301 124 323 131T362 147V552H530V0H383L371 68H366Q331 29 292 9T202 -11ZM282 793H458L355 624H215L282 793Z" />
<glyph unicode="&#xfb;" glyph-name="ucircumflex" horiz-adv-x="581" d="M202 -11Q128 -11 88 28T47 148V552H214V189Q214 155 227 140T278 124Q301 124 323 131T362 147V552H530V0H383L371 68H366Q331 29 292 9T202 -11ZM225 808H356L484 623H365L291 698L216
623H97L225 808Z" />
<glyph unicode="&#xfc;" glyph-name="udieresis" horiz-adv-x="581" d="M202 -11Q128 -11 88 28T47 148V552H214V189Q214 155 227 140T278 124Q301 124 323 131T362 147V552H530V0H383L371 68H366Q331 29 292 9T202 -11ZM329 762H478V628H329V762ZM103 762H252V628H103V762Z"
/>
<glyph unicode="&#xfd;" glyph-name="yacute" horiz-adv-x="545" d="M127 -206Q114 -206 99 -205T70 -201T44 -195T24 -188V-72Q37 -75 53 -77T82 -79Q127 -79 149 -63T182 -17L193 12L-3 552H170L225 383Q236 351 244 305T261 215Q269 165 277 111H280Q288 164
297 214Q305 257 314 303T333 383L384 552H544L344 -42Q330 -83 313 -114T270 -165T210 -196T127 -206ZM279 793H455L352 624H212L279 793Z" />
<glyph unicode="&#xfe;" glyph-name="thorn" horiz-adv-x="594" d="M50 769H218V492H223Q244 524 282 543T373 563Q412 563 446 551T507 511T549 435T564 316V264Q564 187 549 135T504 50T434 4T340 -10Q295 -10 264 2T218 29V-203H50V769ZM293 107Q317 107 335
113T366 134T385 175T392 242V301Q392 340 386 364T368 402T339 421T298 426Q270 426 250 419T218 403V128Q229 120 249 114T293 107Z" />
<glyph unicode="&#xff;" glyph-name="ydieresis" horiz-adv-x="545" d="M127 -206Q114 -206 99 -205T70 -201T44 -195T24 -188V-72Q37 -75 53 -77T82 -79Q127 -79 149 -63T182 -17L193 12L-3 552H170L225 383Q236 351 244 305T261 215Q269 165 277 111H280Q288
164 297 214Q305 257 314 303T333 383L384 552H544L344 -42Q330 -83 313 -114T270 -165T210 -196T127 -206ZM319 762H468V628H319V762ZM93 762H242V628H93V762Z" />
<glyph unicode="&#x100;" glyph-name="Amacron" horiz-adv-x="698" d="M251 721H449L688 0H495L453 135H214L174 0H9L251 721ZM250 252H417L383 365Q372 400 364 441T349 520Q342 563 336 606H331Q325 563 318 520Q312 483 303 441T284 365L250 252ZM175 922H521V809H175V922Z"
/>
<glyph unicode="&#x101;" glyph-name="amacron" horiz-adv-x="527" d="M188 -10Q115 -10 70 30T24 149Q24 192 37 221T75 270T135 300T213 317L313 330V358Q313 397 290 411T207 426Q167 426 132 422T68 410V530Q150 563 271 563Q374 563 427 522T480 383V0H341L329
53H323Q306 24 272 7T188 -10ZM246 95Q266 95 284 101T313 118V241L247 234Q215 230 200 214T185 163Q185 125 202 110T246 95ZM106 762H415V646H106V762Z" />
<glyph unicode="&#x102;" glyph-name="Abreve" horiz-adv-x="698" d="M251 721H449L688 0H495L453 135H214L174 0H9L251 721ZM250 252H417L383 365Q372 400 364 441T349 520Q342 563 336 606H331Q325 563 318 520Q312 483 303 441T284 365L250 252ZM348 784Q265
784 220 833T172 965H286Q288 933 305 916T348 898Q374 898 391 915T411 965H526Q524 881 478 833T348 784Z" />
<glyph unicode="&#x103;" glyph-name="abreve" horiz-adv-x="527" d="M188 -10Q115 -10 70 30T24 149Q24 192 37 221T75 270T135 300T213 317L313 330V358Q313 397 290 411T207 426Q167 426 132 422T68 410V530Q150 563 271 563Q374 563 427 522T480 383V0H341L329
53H323Q306 24 272 7T188 -10ZM246 95Q266 95 284 101T313 118V241L247 234Q215 230 200 214T185 163Q185 125 202 110T246 95ZM267 616Q229 616 198 628T143 662T107 718T92 795H205Q210 757 226 743T267 729Q291 729 307 743T329 795H442Q441 752 428 719T391
663T336 628T267 616Z" />
<glyph unicode="&#x104;" glyph-name="Aogonek" horiz-adv-x="698" d="M453 135H214L174 0H9L251 721H449L685 9Q657 -16 640 -39T622 -88Q622 -108 636 -116T670 -125Q678 -125 691 -124T710 -121V-194Q698 -200 674 -205T621 -210Q553 -210 524 -184T494 -120Q494
-99 502 -81T524 -48T555 -21T592 0H495L453 135ZM250 252H417L383 365Q372 400 364 441T349 520Q342 563 336 606H331Q325 563 318 520Q312 483 303 441T284 365L250 252Z" />
<glyph unicode="&#x105;" glyph-name="aogonek" horiz-adv-x="527" d="M288 -120Q288 -99 296 -81T318 -48T349 -21T386 0H341L329 53H323Q306 24 272 7T188 -10Q115 -10 70 30T24 149Q24 192 37 221T75 270T135 300T213 317L313 330V358Q313 397 290 411T207
426Q167 426 132 422T68 410V530Q150 563 271 563Q374 563 427 522T480 383V9Q416 -43 416 -88Q416 -108 430 -116T464 -125Q472 -125 485 -124T504 -121V-194Q492 -200 468 -205T415 -210Q347 -210 318 -184T288 -120ZM246 95Q266 95 284 101T313 118V241L247
234Q215 230 200 214T185 163Q185 125 202 110T246 95Z" />
<glyph unicode="&#x106;" glyph-name="Cacute" horiz-adv-x="573" d="M358 -12Q283 -12 223 7T121 66T56 170T33 321V396Q33 491 59 555T131 659T238 716T368 733Q431 733 472 725T544 701V555Q511 566 479 574T403 582Q361 582 329 574T275 546T242 493T231 411V329Q231
280 239 244T266 185T318 151T398 139Q451 139 487 150T549 173V27Q514 10 470 -1T358 -12ZM415 795H275L342 964H518L415 795Z" />
<glyph unicode="&#x107;" glyph-name="cacute" horiz-adv-x="465" d="M284 -10Q159 -10 93 53T27 245V299Q27 432 97 497T292 563Q346 563 379 555T437 534V405Q424 411 412 415T387 423T358 427T321 429Q263 429 230 403T196 312V255Q196 183 225 153T324 123Q363
123 392 131T441 148V27Q418 13 380 2T284 -10ZM251 793H427L324 624H184L251 793Z" />
<glyph unicode="&#x108;" glyph-name="Ccircumflex" horiz-adv-x="573" d="M358 -12Q283 -12 223 7T121 66T56 170T33 321V396Q33 491 59 555T131 659T238 716T368 733Q431 733 472 725T544 701V555Q511 566 479 574T403 582Q361 582 329 574T275 546T242 493T231
411V329Q231 280 239 244T266 185T318 151T398 139Q451 139 487 150T549 173V27Q514 10 470 -1T358 -12ZM279 979H410L538 794H419L345 869L270 794H151L279 979Z" />
<glyph unicode="&#x109;" glyph-name="ccircumflex" horiz-adv-x="465" d="M284 -10Q159 -10 93 53T27 245V299Q27 432 97 497T292 563Q346 563 379 555T437 534V405Q424 411 412 415T387 423T358 427T321 429Q263 429 230 403T196 312V255Q196 183 225 153T324
123Q363 123 392 131T441 148V27Q418 13 380 2T284 -10ZM206 808H337L465 623H346L272 698L197 623H78L206 808Z" />
<glyph unicode="&#x10a;" glyph-name="Cdotaccent" horiz-adv-x="573" d="M358 -12Q283 -12 223 7T121 66T56 170T33 321V396Q33 491 59 555T131 659T238 716T368 733Q431 733 472 725T544 701V555Q511 566 479 574T403 582Q361 582 329 574T275 546T242 493T231
411V329Q231 280 239 244T266 185T318 151T398 139Q451 139 487 150T549 173V27Q514 10 470 -1T358 -12ZM257 933H429V799H257V933Z" />
<glyph unicode="&#x10b;" glyph-name="cdotaccent" horiz-adv-x="465" d="M284 -10Q159 -10 93 53T27 245V299Q27 432 97 497T292 563Q346 563 379 555T437 534V405Q424 411 412 415T387 423T358 427T321 429Q263 429 230 403T196 312V255Q196 183 225 153T324
123Q363 123 392 131T441 148V27Q418 13 380 2T284 -10ZM186 779H355V637H186V779Z" />
<glyph unicode="&#x10c;" glyph-name="Ccaron" horiz-adv-x="573" d="M358 -12Q283 -12 223 7T121 66T56 170T33 321V396Q33 491 59 555T131 659T238 716T368 733Q431 733 472 725T544 701V555Q511 566 479 574T403 582Q361 582 329 574T275 546T242 493T231 411V329Q231
280 239 244T266 185T318 151T398 139Q451 139 487 150T549 173V27Q514 10 470 -1T358 -12ZM410 794H279L151 979H270L345 904L419 979H538L410 794Z" />
<glyph unicode="&#x10d;" glyph-name="ccaron" horiz-adv-x="465" d="M284 -10Q159 -10 93 53T27 245V299Q27 432 97 497T292 563Q346 563 379 555T437 534V405Q424 411 412 415T387 423T358 427T321 429Q263 429 230 403T196 312V255Q196 183 225 153T324 123Q363
123 392 131T441 148V27Q418 13 380 2T284 -10ZM337 623H206L78 808H197L272 733L346 808H465L337 623Z" />
<glyph unicode="&#x10e;" glyph-name="Dcaron" horiz-adv-x="694" d="M60 721H320Q401 721 464 705T571 651T638 553T661 403V329Q661 242 638 180T572 77T465 19T321 0H60V721ZM317 145Q355 145 383 152T429 179T456 232T465 319V406Q465 459 455 492T426 544T378
569T313 576H247V145H317ZM395 794H264L136 979H255L330 904L404 979H523L395 794Z" />
<glyph unicode="&#x10f;" glyph-name="dcaron" horiz-adv-x="592" d="M233 -10Q192 -10 155 3T90 46T46 124T30 241V294Q30 368 47 419T94 502T166 548T258 563Q304 563 332 549T374 519V769H542V0H397L385 62H380Q354 28 318 9T233 -10ZM297 119Q323 119 342
127T374 145V420Q363 429 344 435T299 441Q275 441 257 436T226 415T207 374T200 306V248Q200 207 206 182T225 143T256 124T297 119ZM598 769H746L715 600H594L598 769Z" />
<glyph unicode="&#x110;" glyph-name="Dcroat" horiz-adv-x="694" d="M60 292H6V430H60V721H320Q401 721 464 705T571 651T638 553T661 403V329Q661 242 638 180T572 77T465 19T321 0H60V292ZM317 145Q355 145 383 152T429 179T456 232T465 319V406Q465 459 455
492T426 544T378 569T313 576H247V430H367V292H247V145H317Z" />
<glyph unicode="&#x111;" glyph-name="dcroat" horiz-adv-x="592" d="M230 708H597V620H230V708ZM233 -10Q192 -10 155 3T90 46T46 124T30 241V294Q30 368 47 419T94 502T166 548T258 563Q304 563 332 549T374 519V769H542V0H397L385 62H380Q354 28 318 9T233
-10ZM297 119Q323 119 342 127T374 145V420Q363 429 344 435T299 441Q275 441 257 436T226 415T207 374T200 306V248Q200 207 206 182T225 143T256 124T297 119Z" />
<glyph unicode="&#x112;" glyph-name="Emacron" horiz-adv-x="579" d="M60 721H531V573H243V438H468V298H243V148H541V0H60V721ZM129 922H475V809H129V922Z" />
<glyph unicode="&#x113;" glyph-name="emacron" horiz-adv-x="552" d="M304 -10Q27 -10 27 250V304Q27 427 95 495T282 563Q407 563 466 498T526 299V225H196Q201 162 237 141T347 120Q395 120 434 128T505 147V34Q475 18 426 4T304 -10ZM282 446Q264 446 248
442T220 424T200 389T191 330H365Q365 365 359 387T343 423T317 441T282 446ZM119 762H428V646H119V762Z" />
<glyph unicode="&#x114;" glyph-name="Ebreve" horiz-adv-x="579" d="M60 721H531V573H243V438H468V298H243V148H541V0H60V721ZM299 784Q216 784 171 833T123 965H237Q239 933 256 916T299 898Q325 898 342 915T362 965H477Q475 881 429 833T299 784Z" />
<glyph unicode="&#x115;" glyph-name="ebreve" horiz-adv-x="552" d="M304 -10Q27 -10 27 250V304Q27 427 95 495T282 563Q407 563 466 498T526 299V225H196Q201 162 237 141T347 120Q395 120 434 128T505 147V34Q475 18 426 4T304 -10ZM282 446Q264 446 248 442T220
424T200 389T191 330H365Q365 365 359 387T343 423T317 441T282 446ZM278 616Q240 616 209 628T154 662T118 718T103 795H216Q221 757 237 743T278 729Q302 729 318 743T340 795H453Q452 752 439 719T402 663T347 628T278 616Z" />
<glyph unicode="&#x116;" glyph-name="Edotaccent" horiz-adv-x="579" d="M60 721H531V573H243V438H468V298H243V148H541V0H60V721ZM212 933H384V799H212V933Z" />
<glyph unicode="&#x117;" glyph-name="edotaccent" horiz-adv-x="552" d="M304 -10Q27 -10 27 250V304Q27 427 95 495T282 563Q407 563 466 498T526 299V225H196Q201 162 237 141T347 120Q395 120 434 128T505 147V34Q475 18 426 4T304 -10ZM282 446Q264 446 248
442T220 424T200 389T191 330H365Q365 365 359 387T343 423T317 441T282 446ZM190 779H359V637H190V779Z" />
<glyph unicode="&#x118;" glyph-name="Eogonek" horiz-adv-x="579" d="M60 721H531V573H243V438H468V298H243V148H541V0H60V721ZM429 -210Q361 -210 332 -184T302 -120Q302 -99 310 -81T332 -48T363 -21T400 0H484Q430 -46 430 -88Q430 -108 444 -116T478 -125Q486
-125 499 -124T518 -121V-194Q506 -200 482 -205T429 -210Z" />
<glyph unicode="&#x119;" glyph-name="eogonek" horiz-adv-x="552" d="M369 -210Q301 -210 272 -184T242 -120Q242 -82 265 -55T321 -10H304Q27 -10 27 250V304Q27 427 95 495T282 563Q407 563 466 498T526 299V225H196Q201 162 237 141T347 120Q395 120 434 128T505
147V34Q485 23 469 17T438 5Q410 -6 390 -31T370 -88Q370 -108 384 -116T418 -125Q426 -125 439 -124T458 -121V-194Q446 -200 422 -205T369 -210ZM282 446Q264 446 248 442T220 424T200 389T191 330H365Q365 365 359 387T343 423T317 441T282 446Z" />
<glyph unicode="&#x11a;" glyph-name="Ecaron" horiz-adv-x="579" d="M60 721H531V573H243V438H468V298H243V148H541V0H60V721ZM362 794H231L103 979H222L297 904L371 979H490L362 794Z" />
<glyph unicode="&#x11b;" glyph-name="ecaron" horiz-adv-x="552" d="M304 -10Q27 -10 27 250V304Q27 427 95 495T282 563Q407 563 466 498T526 299V225H196Q201 162 237 141T347 120Q395 120 434 128T505 147V34Q475 18 426 4T304 -10ZM282 446Q264 446 248 442T220
424T200 389T191 330H365Q365 365 359 387T343 423T317 441T282 446ZM343 623H212L84 808H203L278 733L352 808H471L343 623Z" />
<glyph unicode="&#x11c;" glyph-name="Gcircumflex" horiz-adv-x="667" d="M377 -11Q296 -11 232 5T124 61T57 164T33 323V396Q33 495 61 560T136 664T247 717T382 733Q454 733 506 723T588 697V547Q559 558 516 567T406 577Q350 577 316 565T262 531T235 476T228
401V319Q228 273 233 237T253 176T297 137T373 123Q395 123 415 126T449 135V260H351V394H622V36Q583 15 517 2T377 -11ZM285 979H416L544 794H425L351 869L276 794H157L285 979Z" />
<glyph unicode="&#x11d;" glyph-name="gcircumflex" horiz-adv-x="594" d="M266 -218Q202 -218 151 -207T62 -178V-57Q88 -66 133 -75T225 -85Q305 -85 340 -64T376 10V72H371Q323 21 229 21Q189 21 153 32T90 72T46 145T30 258V304Q30 377 47 426T94 506T165
550T255 563Q306 563 339 549T392 520H397L407 552H544V-5Q544 -65 525 -106T470 -171T383 -207T266 -218ZM297 144Q326 144 344 151T376 167V413Q365 422 343 429T299 436Q275 436 257 432T227 414T209 378T202 317V267Q202 227 208 203T227 165T256 148T297 144ZM232
808H363L491 623H372L298 698L223 623H104L232 808Z" />
<glyph unicode="&#x11e;" glyph-name="Gbreve" horiz-adv-x="667" d="M377 -11Q296 -11 232 5T124 61T57 164T33 323V396Q33 495 61 560T136 664T247 717T382 733Q454 733 506 723T588 697V547Q559 558 516 567T406 577Q350 577 316 565T262 531T235 476T228 401V319Q228
273 233 237T253 176T297 137T373 123Q395 123 415 126T449 135V260H351V394H622V36Q583 15 517 2T377 -11ZM352 784Q269 784 224 833T176 965H290Q292 933 309 916T352 898Q378 898 395 915T415 965H530Q528 881 482 833T352 784Z" />
<glyph unicode="&#x11f;" glyph-name="gbreve" horiz-adv-x="594" d="M266 -218Q202 -218 151 -207T62 -178V-57Q88 -66 133 -75T225 -85Q305 -85 340 -64T376 10V72H371Q323 21 229 21Q189 21 153 32T90 72T46 145T30 258V304Q30 377 47 426T94 506T165 550T255
563Q306 563 339 549T392 520H397L407 552H544V-5Q544 -65 525 -106T470 -171T383 -207T266 -218ZM297 144Q326 144 344 151T376 167V413Q365 422 343 429T299 436Q275 436 257 432T227 414T209 378T202 317V267Q202 227 208 203T227 165T256 148T297 144ZM290
616Q252 616 221 628T166 662T130 718T115 795H228Q233 757 249 743T290 729Q314 729 330 743T352 795H465Q464 752 451 719T414 663T359 628T290 616Z" />
<glyph unicode="&#x120;" glyph-name="Gdotaccent" horiz-adv-x="667" d="M377 -11Q296 -11 232 5T124 61T57 164T33 323V396Q33 495 61 560T136 664T247 717T382 733Q454 733 506 723T588 697V547Q559 558 516 567T406 577Q350 577 316 565T262 531T235 476T228
401V319Q228 273 233 237T253 176T297 137T373 123Q395 123 415 126T449 135V260H351V394H622V36Q583 15 517 2T377 -11ZM265 933H437V799H265V933Z" />
<glyph unicode="&#x121;" glyph-name="gdotaccent" horiz-adv-x="594" d="M266 -218Q202 -218 151 -207T62 -178V-57Q88 -66 133 -75T225 -85Q305 -85 340 -64T376 10V72H371Q323 21 229 21Q189 21 153 32T90 72T46 145T30 258V304Q30 377 47 426T94 506T165 550T255
563Q306 563 339 549T392 520H397L407 552H544V-5Q544 -65 525 -106T470 -171T383 -207T266 -218ZM297 144Q326 144 344 151T376 167V413Q365 422 343 429T299 436Q275 436 257 432T227 414T209 378T202 317V267Q202 227 208 203T227 165T256 148T297 144ZM199
779H368V637H199V779Z" />
<glyph unicode="&#x122;" glyph-name="Gcommaaccent" horiz-adv-x="667" d="M377 -11Q296 -11 232 5T124 61T57 164T33 323V396Q33 495 61 560T136 664T247 717T382 733Q454 733 506 723T588 697V547Q559 558 516 567T406 577Q350 577 316 565T262 531T235 476T228
401V319Q228 273 233 237T253 176T297 137T373 123Q395 123 415 126T449 135V260H351V394H622V36Q583 15 517 2T377 -11ZM279 -67H439L400 -242H274L279 -67Z" />
<glyph unicode="&#x123;" glyph-name="gcommaaccent" horiz-adv-x="594" d="M266 -218Q202 -218 151 -207T62 -178V-57Q88 -66 133 -75T225 -85Q305 -85 340 -64T376 10V72H371Q323 21 229 21Q189 21 153 32T90 72T46 145T30 258V304Q30 377 47 426T94 506T165
550T255 563Q306 563 339 549T392 520H397L407 552H544V-5Q544 -65 525 -106T470 -171T383 -207T266 -218ZM297 144Q326 144 344 151T376 167V413Q365 422 343 429T299 436Q275 436 257 432T227 414T209 378T202 317V267Q202 227 208 203T227 165T256 148T297 144ZM367
624H207L246 799H372L367 624Z" />
<glyph unicode="&#x124;" glyph-name="Hcircumflex" horiz-adv-x="716" d="M60 721H246V445H471V721H656V0H471V295H246V0H60V721ZM292 979H423L551 794H432L358 869L283 794H164L292 979Z" />
<glyph unicode="&#x125;" glyph-name="hcircumflex" horiz-adv-x="587" d="M50 769H217V490H222Q252 525 293 544T384 563Q458 563 499 528T540 411V0H372V363Q372 397 357 410T303 424Q280 424 257 418T217 404V0H50V769ZM228 1007H359L487 822H368L294 897L219
822H100L228 1007Z" />
<glyph unicode="&#x126;" glyph-name="Hbar" horiz-adv-x="728" d="M749 523H-21V629H749V523ZM66 721H252V445H477V721H662V0H477V295H252V0H66V721Z" />
<glyph unicode="&#x127;" glyph-name="hbar" horiz-adv-x="587" d="M362 620H-5V708H362V620ZM50 769H217V490H222Q252 525 293 544T384 563Q458 563 499 528T540 411V0H372V363Q372 397 357 410T303 424Q280 424 257 418T217 404V0H50V769Z" />
<glyph unicode="&#x128;" glyph-name="Itilde" horiz-adv-x="306" d="M60 721H246V0H60V721ZM215 798Q218 841 230 871T260 919T300 946T344 954Q363 954 380 948T413 936T441 923T465 917Q492 917 500 953H607Q604 910 592 880T561 832T521 805T477 797Q457 797
440 803T409 815T381 828T358 834Q344 834 335 825T322 798H215V798Z" />
<glyph unicode="&#x129;" glyph-name="itilde" horiz-adv-x="270" d="M51 552H219V0H51V552ZM195 627Q198 670 210 700T240 748T280 775T324 783Q343 783 360 777T393 765T421 752T445 746Q472 746 480 782H587Q584 739 572 709T541 661T501 634T457 626Q437 626
420 632T389 644T361 657T338 663Q324 663 315 654T302 627H195V627Z" />
<glyph unicode="&#x12a;" glyph-name="Imacron" horiz-adv-x="306" d="M60 721H246V0H60V721ZM237 922H583V809H237V922Z" />
<glyph unicode="&#x12b;" glyph-name="imacron" horiz-adv-x="270" d="M-9 762H280V646H-9V762ZM51 552H219V0H51V552Z" />
<glyph unicode="&#x12c;" glyph-name="Ibreve" horiz-adv-x="306" d="M60 721H246V0H60V721ZM410 784Q327 784 282 833T234 965H348Q350 933 367 916T410 898Q436 898 453 915T473 965H588Q586 881 540 833T410 784Z" />
<glyph unicode="&#x12d;" glyph-name="ibreve" horiz-adv-x="270" d="M51 552H219V0H51V552ZM392 616Q354 616 323 628T268 662T232 718T217 795H330Q335 757 351 743T392 729Q416 729 432 743T454 795H567Q566 752 553 719T516 663T461 628T392 616Z" />
<glyph unicode="&#x12e;" glyph-name="Iogonek" horiz-adv-x="306" d="M60 721H246V10Q215 -14 198 -39T180 -88Q180 -108 194 -116T228 -125Q236 -125 249 -124T268 -121V-194Q256 -200 232 -205T179 -210Q111 -210 82 -184T52 -120Q52 -99 60 -81T82 -48T113
-21T150 0H60V721Z" />
<glyph unicode="&#x12f;" glyph-name="iogonek" horiz-adv-x="270" d="M219 552V5Q159 -43 159 -88Q159 -108 173 -116T207 -125Q215 -125 228 -124T247 -121V-194Q235 -200 211 -205T158 -210Q90 -210 61 -184T31 -120Q31 -99 39 -81T61 -48T92 -21T129 0H51V552H219ZM51
769H219V627H51V769Z" />
<glyph unicode="&#x130;" glyph-name="Idotaccent" horiz-adv-x="306" d="M60 721H246V0H60V721ZM324 933H496V799H324V933Z" />
<glyph unicode="&#x131;" glyph-name="dotlessi" horiz-adv-x="270" d="M51 552H219V0H51V552Z" />
<glyph unicode="&#x132;" glyph-name="IJ" horiz-adv-x="762" d="M494 -8Q440 -8 407 0T348 23V155Q382 143 425 143Q470 143 497 163T524 235V721H709V209Q709 162 696 122T655 53T588 8T494 -8ZM61 721H247V0H61V721Z" />
<glyph unicode="&#x133;" glyph-name="ij" horiz-adv-x="540" d="M309 -206Q280 -206 259 -202T223 -189V-77Q232 -79 238 -79T255 -80Q284 -80 302 -64T321 -12V552H489V-29Q489 -68 479 -101T448 -157T392 -193T309 -206ZM51 769H219V627H51V769ZM51 552H219V0H51V552ZM321
769H489V627H321V769Z" />
<glyph unicode="&#x134;" glyph-name="Jcircumflex" horiz-adv-x="453" d="M176 -8Q119 -8 85 1T24 25V157Q41 151 64 147T113 143Q159 143 187 163T215 235V721H400V209Q400 162 386 122T345 53T275 8T176 -8ZM240 979H371L499 794H380L306 869L231 794H112L240 979Z" />
<glyph unicode="&#x135;" glyph-name="jcircumflex" horiz-adv-x="270" d="M35 -206Q3 -206 -22 -201T-61 -187V-76Q-52 -78 -42 -79T-20 -80Q15 -80 33 -64T51 -12V552H219V-29Q219 -68 209 -101T177 -157T120 -193T35 -206ZM326 808H457L585 623H466L392 698L317
623H198L326 808Z" />
<glyph unicode="&#x136;" glyph-name="Kcommaaccent" horiz-adv-x="680" d="M256 -67H416L377 -242H251L256 -67ZM257 362L467 721H656L446 380L671 0H471L257 362ZM60 721H247V0H60V721Z" />
<glyph unicode="&#x137;" glyph-name="kcommaaccent" horiz-adv-x="564" d="M50 769H217V0H50V769ZM226 289L366 552H542L388 300L551 0H371L226 289ZM193 -67H353L314 -242H188L193 -67Z" />
<glyph unicode="&#x139;" glyph-name="Lacute" horiz-adv-x="534" d="M59 721H246V148H510V0H59V721ZM474 795H334L401 964H577L474 795Z" />
<glyph unicode="&#x13a;" glyph-name="lacute" horiz-adv-x="310" d="M191 -8Q119 -8 84 23T49 133V769H216V161Q216 135 225 125T261 115Q272 115 282 117T301 121V15Q288 7 260 0T191 -8ZM460 822H320L387 991H563L460 822Z" />
<glyph unicode="&#x13b;" glyph-name="Lcommaaccent" horiz-adv-x="534" d="M59 721H246V148H510V0H59V721ZM206 -67H366L327 -242H201L206 -67Z" />
<glyph unicode="&#x13c;" glyph-name="lcommaaccent" horiz-adv-x="310" d="M191 -8Q119 -8 84 23T49 133V769H216V161Q216 135 225 125T261 115Q272 115 282 117T301 121V15Q288 7 260 0T191 -8ZM347 -67H507L468 -242H342L347 -67Z" />
<glyph unicode="&#x13d;" glyph-name="Lcaron" horiz-adv-x="534" d="M59 721H246V148H510V0H59V721ZM309 978H457L426 809H305L309 978Z" />
<glyph unicode="&#x13e;" glyph-name="lcaron" horiz-adv-x="310" d="M191 -8Q119 -8 84 23T49 133V769H216V161Q216 135 225 125T261 115Q272 115 282 117T301 121V15Q288 7 260 0T191 -8ZM272 769H420L389 600H268L272 769Z" />
<glyph unicode="&#x13f;" glyph-name="Ldot" horiz-adv-x="534" d="M59 721H246V148H510V0H59V721Z" />
<glyph unicode="&#x140;" glyph-name="ldot" horiz-adv-x="445" d="M191 -8Q119 -8 84 23T49 133V769H216V161Q216 135 225 125T261 115Q272 115 282 117T301 121V15Q288 7 260 0T191 -8Z" />
<glyph unicode="&#x141;" glyph-name="Lslash" horiz-adv-x="546" d="M9 346L71 369V721H258V440L437 508V369L258 301V148H522V0H71V230L9 207V346Z" />
<glyph unicode="&#x142;" glyph-name="lslash" horiz-adv-x="310" d="M191 -8Q119 -8 84 23T49 133V288L-3 263V397L49 422V769H216V504L294 542V408L216 370V161Q216 135 225 125T261 115Q272 115 282 117T301 121V15Q288 7 260 0T191 -8Z" />
<glyph unicode="&#x143;" glyph-name="Nacute" horiz-adv-x="711" d="M60 721H265L379 520Q396 488 417 443T456 354Q477 304 498 251H501Q497 309 493 363Q490 409 488 458T486 540V721H651V0H472L333 245Q316 275 296 322T257 415Q236 468 215 524H211Q214 462
218 404Q219 379 220 353T223 302T225 254T226 213V0H60V721ZM423 795H283L350 964H526L423 795Z" />
<glyph unicode="&#x144;" glyph-name="nacute" horiz-adv-x="588" d="M51 552H212V484H217Q285 563 385 563Q459 563 500 528T541 411V0H373V363Q373 397 358 410T304 424Q281 424 258 418T218 404V0H51V552ZM294 793H470L367 624H227L294 793Z" />
<glyph unicode="&#x145;" glyph-name="Ncommaaccent" horiz-adv-x="711" d="M60 721H265L379 520Q396 488 417 443T456 354Q477 304 498 251H501Q497 309 493 363Q490 409 488 458T486 540V721H651V0H472L333 245Q316 275 296 322T257 415Q236 468 215 524H211Q214
462 218 404Q219 379 220 353T223 302T225 254T226 213V0H60V721ZM284 -67H444L405 -242H279L284 -67Z" />
<glyph unicode="&#x146;" glyph-name="ncommaaccent" horiz-adv-x="588" d="M51 552H212V484H217Q285 563 385 563Q459 563 500 528T541 411V0H373V363Q373 397 358 410T304 424Q281 424 258 418T218 404V0H51V552ZM213 -67H373L334 -242H208L213 -67Z" />
<glyph unicode="&#x147;" glyph-name="Ncaron" horiz-adv-x="711" d="M60 721H265L379 520Q396 488 417 443T456 354Q477 304 498 251H501Q497 309 493 363Q490 409 488 458T486 540V721H651V0H472L333 245Q316 275 296 322T257 415Q236 468 215 524H211Q214 462
218 404Q219 379 220 353T223 302T225 254T226 213V0H60V721ZM432 794H301L173 979H292L367 904L441 979H560L432 794Z" />
<glyph unicode="&#x148;" glyph-name="ncaron" horiz-adv-x="588" d="M51 552H212V484H217Q285 563 385 563Q459 563 500 528T541 411V0H373V363Q373 397 358 410T304 424Q281 424 258 418T218 404V0H51V552ZM361 623H230L102 808H221L296 733L370 808H489L361 623Z" />
<glyph unicode="&#x149;" glyph-name="napostrophe" horiz-adv-x="648" d="M111 552H272V484H277Q345 563 445 563Q519 563 560 528T601 411V0H433V363Q433 397 418 410T364 424Q341 424 318 418T278 404V0H111V552ZM199 721H359L307 466H179L199 721Z" />
<glyph unicode="&#x14a;" glyph-name="Eng" horiz-adv-x="711" d="M425 -206Q380 -206 351 -198T298 -178V-46Q317 -51 332 -53T367 -55Q407 -55 433 -42T467 9L333 245Q316 275 296 322T257 415Q236 468 215 524H211Q214 462 218 404Q219 379 220 353T223 302T225
254T226 213V0H60V721H265L379 520Q396 488 417 443T456 354Q477 304 498 251H501Q497 309 493 363Q490 409 488 458T486 540V721H651V0Q651 -42 637 -79T595 -145T525 -189T425 -206Z" />
<glyph unicode="&#x14b;" glyph-name="eng" horiz-adv-x="588" d="M357 -206Q325 -206 300 -201T261 -187V-76Q270 -78 280 -79T302 -80Q337 -80 355 -64T373 -12V363Q373 397 358 410T304 424Q281 424 258 418T218 404V0H51V552H212V484H217Q285 563 385 563Q459
563 500 528T541 411V-29Q541 -68 531 -101T499 -157T442 -193T357 -206Z" />
<glyph unicode="&#x14c;" glyph-name="Omacron" horiz-adv-x="718" d="M359 -12Q290 -12 230 6T127 65T58 168T33 322V396Q33 488 59 552T131 656T235 715T362 733Q432 733 491 715T593 657T660 554T685 400V326Q685 234 659 170T589 66T486 7T359 -12ZM359 127Q426
127 457 172T489 314V400Q489 453 482 490T460 550T420 583T359 594Q292 594 261 550T229 410V324Q229 269 236 232T259 171T299 137T359 127ZM186 922H532V809H186V922Z" />
<glyph unicode="&#x14d;" glyph-name="omacron" horiz-adv-x="580" d="M290 -10Q159 -10 94 56T28 247V299Q28 365 47 414T102 497T185 546T290 563Q421 563 486 497T552 305V254Q552 188 533 139T479 56T396 7T290 -10ZM292 111Q314 111 331 117T359 139T376
180T382 244V302Q382 347 376 374T357 416T328 436T290 441Q245 441 222 412T198 307V249Q198 205 205 178T224 136T254 116T292 111ZM135 762H444V646H135V762Z" />
<glyph unicode="&#x14e;" glyph-name="Obreve" horiz-adv-x="718" d="M359 -12Q290 -12 230 6T127 65T58 168T33 322V396Q33 488 59 552T131 656T235 715T362 733Q432 733 491 715T593 657T660 554T685 400V326Q685 234 659 170T589 66T486 7T359 -12ZM359 127Q426
127 457 172T489 314V400Q489 453 482 490T460 550T420 583T359 594Q292 594 261 550T229 410V324Q229 269 236 232T259 171T299 137T359 127ZM359 784Q276 784 231 833T183 965H297Q299 933 316 916T359 898Q385 898 402 915T422 965H537Q535 881 489 833T359
784Z" />
<glyph unicode="&#x14f;" glyph-name="obreve" horiz-adv-x="580" d="M290 -10Q159 -10 94 56T28 247V299Q28 365 47 414T102 497T185 546T290 563Q421 563 486 497T552 305V254Q552 188 533 139T479 56T396 7T290 -10ZM292 111Q314 111 331 117T359 139T376 180T382
244V302Q382 347 376 374T357 416T328 436T290 441Q245 441 222 412T198 307V249Q198 205 205 178T224 136T254 116T292 111ZM290 616Q252 616 221 628T166 662T130 718T115 795H228Q233 757 249 743T290 729Q314 729 330 743T352 795H465Q464 752 451 719T414
663T359 628T290 616Z" />
<glyph unicode="&#x150;" glyph-name="Ohungarumlaut" horiz-adv-x="718" d="M359 -12Q290 -12 230 6T127 65T58 168T33 322V396Q33 488 59 552T131 656T235 715T362 733Q432 733 491 715T593 657T660 554T685 400V326Q685 234 659 170T589 66T486 7T359 -12ZM359
127Q426 127 457 172T489 314V400Q489 453 482 490T460 550T420 583T359 594Q292 594 261 550T229 410V324Q229 269 236 232T259 171T299 137T359 127ZM452 1217H601L507 1048H394L452 1217ZM264 1217H413L319 1048H206L264 1217Z" />
<glyph unicode="&#x151;" glyph-name="ohungarumlaut" horiz-adv-x="580" d="M290 -10Q159 -10 94 56T28 247V299Q28 365 47 414T102 497T185 546T290 563Q421 563 486 497T552 305V254Q552 188 533 139T479 56T396 7T290 -10ZM292 111Q314 111 331 117T359 139T376
180T382 244V302Q382 347 376 374T357 416T328 436T290 441Q245 441 222 412T198 307V249Q198 205 205 178T224 136T254 116T292 111ZM370 793H522L458 624H333L370 793ZM161 793H313L247 624H122L161 793Z" />
<glyph unicode="&#x152;" glyph-name="OE" horiz-adv-x="949" d="M374 0Q293 0 230 16T123 70T56 168T33 318V392Q33 479 56 541T122 644T229 702T373 721H901V573H623V438H839V298H623V148H911V0H374ZM440 145V576H377Q339 576 311 569T265 542T238 488T229 402V315Q229
262 239 229T268 177T316 152T381 145H440Z" />
<glyph unicode="&#x153;" glyph-name="oe" horiz-adv-x="909" d="M659 -10Q584 -10 537 10T464 70Q409 -10 290 -10Q159 -10 94 56T28 247V299Q28 365 47 414T102 497T185 546T290 563Q357 563 400 543T469 486Q495 522 536 542T638 563Q764 563 823 498T883 299V225H553Q558
162 594 141T704 120Q752 120 791 128T862 147V34Q833 18 783 4T659 -10ZM292 111Q314 111 331 117T359 139T376 180T382 244V302Q382 347 376 374T357 416T328 436T290 441Q245 441 222 412T198 307V249Q198 205 205 178T224 136T254 116T292 111ZM639 446Q621
446 605 442T577 424T557 389T548 330H722Q722 365 716 387T700 423T674 441T639 446Z" />
<glyph unicode="&#x154;" glyph-name="Racute" horiz-adv-x="656" d="M60 721H349Q479 721 542 667T606 497Q606 420 576 378T487 314V310L651 0H458L324 263H247V0H60V721ZM327 387Q379 387 400 409T421 487Q421 540 400 563T326 586H245V387H327ZM391 795H251L318
964H494L391 795Z" />
<glyph unicode="&#x155;" glyph-name="racute" horiz-adv-x="410" d="M51 552H213V462H219Q246 512 282 535T358 559Q369 559 377 557T390 553V396Q381 398 369 399T346 400Q311 400 277 395T219 377V0H51V552ZM461 793H637L534 624H394L461 793Z" />
<glyph unicode="&#x156;" glyph-name="Rcommaaccent" horiz-adv-x="656" d="M60 721H349Q479 721 542 667T606 497Q606 420 576 378T487 314V310L651 0H458L324 263H247V0H60V721ZM327 387Q379 387 400 409T421 487Q421 540 400 563T326 586H245V387H327ZM250
-67H410L371 -242H245L250 -67Z" />
<glyph unicode="&#x157;" glyph-name="rcommaaccent" horiz-adv-x="410" d="M51 552H213V462H219Q246 512 282 535T358 559Q369 559 377 557T390 553V396Q381 398 369 399T346 400Q311 400 277 395T219 377V0H51V552ZM312 -67H472L433 -242H307L312 -67Z" />
<glyph unicode="&#x158;" glyph-name="Rcaron" horiz-adv-x="656" d="M60 721H349Q479 721 542 667T606 497Q606 420 576 378T487 314V310L651 0H458L324 263H247V0H60V721ZM327 387Q379 387 400 409T421 487Q421 540 400 563T326 586H245V387H327ZM385 794H254L126
979H245L320 904L394 979H513L385 794Z" />
<glyph unicode="&#x159;" glyph-name="rcaron" horiz-adv-x="410" d="M51 552H213V462H219Q246 512 282 535T358 559Q369 559 377 557T390 553V396Q381 398 369 399T346 400Q311 400 277 395T219 377V0H51V552ZM549 623H418L290 808H409L484 733L558 808H677L549 623Z" />
<glyph unicode="&#x15a;" glyph-name="Sacute" horiz-adv-x="549" d="M252 -12Q180 -12 123 -1T31 31V180Q76 163 124 151T232 139Q289 139 314 156T339 206Q339 221 336 232T323 252T298 266T256 279L202 292Q158 302 126 318T72 360T39 423T28 511Q28 613 88
673T279 733Q319 733 349 730T403 722T445 710T477 696V548Q443 562 398 572T295 582Q204 582 204 521Q204 507 207 497T218 479T242 465T280 453L335 440Q380 429 415 413T473 373T508 312T520 224Q520 -12 252 -12ZM342 795H202L269 964H445L342 795Z" />
<glyph unicode="&#x15b;" glyph-name="sacute" horiz-adv-x="469" d="M214 -10Q154 -10 109 -3T31 23V148Q63 135 99 126T189 117Q219 117 237 120T265 130T278 144T281 163Q281 182 269 191T221 206L178 213Q109 224 69 264T29 381Q29 468 81 515T242 563Q302
563 340 557T408 538V415Q382 424 347 430T264 436Q213 436 197 425T181 393Q181 375 193 367T242 352L284 345Q369 331 405 291T441 175Q441 84 385 37T214 -10ZM485 793H661L558 624H418L485 793Z" />
<glyph unicode="&#x15c;" glyph-name="Scircumflex" horiz-adv-x="549" d="M252 -12Q180 -12 123 -1T31 31V180Q76 163 124 151T232 139Q289 139 314 156T339 206Q339 221 336 232T323 252T298 266T256 279L202 292Q158 302 126 318T72 360T39 423T28 511Q28 613
88 673T279 733Q319 733 349 730T403 722T445 710T477 696V548Q443 562 398 572T295 582Q204 582 204 521Q204 507 207 497T218 479T242 465T280 453L335 440Q380 429 415 413T473 373T508 312T520 224Q520 -12 252 -12ZM204 979H335L463 794H344L270 869L195 794H76L204
979Z" />
<glyph unicode="&#x15d;" glyph-name="scircumflex" horiz-adv-x="469" d="M214 -10Q154 -10 109 -3T31 23V148Q63 135 99 126T189 117Q219 117 237 120T265 130T278 144T281 163Q281 182 269 191T221 206L178 213Q109 224 69 264T29 381Q29 468 81 515T242 563Q302
563 340 557T408 538V415Q382 424 347 430T264 436Q213 436 197 425T181 393Q181 375 193 367T242 352L284 345Q369 331 405 291T441 175Q441 84 385 37T214 -10ZM428 808H559L687 623H568L494 698L419 623H300L428 808Z" />
<glyph unicode="&#x15e;" glyph-name="Scedilla" horiz-adv-x="549" d="M252 -12Q180 -12 123 -1T31 31V180Q76 163 124 151T232 139Q289 139 314 156T339 206Q339 221 336 232T323 252T298 266T256 279L202 292Q158 302 126 318T72 360T39 423T28 511Q28 613
88 673T279 733Q319 733 349 730T403 722T445 710T477 696V548Q443 562 398 572T295 582Q204 582 204 521Q204 507 207 497T218 479T242 465T280 453L335 440Q380 429 415 413T473 373T508 312T520 224Q520 -12 252 -12ZM166 -181Q200 -178 223 -175T259 -167T278
-155T284 -138Q284 -121 267 -115T207 -107V0H290V-49Q349 -51 375 -74T402 -137Q402 -163 390 -183T349 -218T276 -241T166 -253V-181Z" />
<glyph unicode="&#x15f;" glyph-name="scedilla" horiz-adv-x="469" d="M214 -10Q154 -10 109 -3T31 23V148Q63 135 99 126T189 117Q219 117 237 120T265 130T278 144T281 163Q281 182 269 191T221 206L178 213Q109 224 69 264T29 381Q29 468 81 515T242 563Q302
563 340 557T408 538V415Q382 424 347 430T264 436Q213 436 197 425T181 393Q181 375 193 367T242 352L284 345Q369 331 405 291T441 175Q441 84 385 37T214 -10ZM363 -180Q397 -177 420 -174T456 -166T475 -154T481 -137Q481 -120 464 -114T404 -106V1H487V-48Q546
-50 572 -73T599 -136Q599 -162 587 -182T546 -217T473 -240T363 -252V-180Z" />
<glyph unicode="&#x160;" glyph-name="Scaron" horiz-adv-x="549" d="M252 -12Q180 -12 123 -1T31 31V180Q76 163 124 151T232 139Q289 139 314 156T339 206Q339 221 336 232T323 252T298 266T256 279L202 292Q158 302 126 318T72 360T39 423T28 511Q28 613 88
673T279 733Q319 733 349 730T403 722T445 710T477 696V548Q443 562 398 572T295 582Q204 582 204 521Q204 507 207 497T218 479T242 465T280 453L335 440Q380 429 415 413T473 373T508 312T520 224Q520 -12 252 -12ZM335 794H204L76 979H195L270 904L344 979H463L335
794Z" />
<glyph unicode="&#x161;" glyph-name="scaron" horiz-adv-x="469" d="M214 -10Q154 -10 109 -3T31 23V148Q63 135 99 126T189 117Q219 117 237 120T265 130T278 144T281 163Q281 182 269 191T221 206L178 213Q109 224 69 264T29 381Q29 468 81 515T242 563Q302
563 340 557T408 538V415Q382 424 347 430T264 436Q213 436 197 425T181 393Q181 375 193 367T242 352L284 345Q369 331 405 291T441 175Q441 84 385 37T214 -10ZM559 623H428L300 808H419L494 733L568 808H687L559 623Z" />
<glyph unicode="&#x162;" glyph-name="Tcommaaccent" horiz-adv-x="589" d="M202 573H20V721H569V573H387V0H202V573ZM213 -67H373L334 -242H208L213 -67Z" />
<glyph unicode="&#x163;" glyph-name="tcommaaccent" horiz-adv-x="408" d="M398 -67H558L519 -242H393L398 -67ZM258 -8Q218 -8 187 -1T135 24T103 71T92 146V427H21V552H92V682H259V552H370V427H259V171Q259 141 274 131T323 121Q336 121 349 123T374 127V15Q358
6 329 -1T258 -8Z" />
<glyph unicode="&#x164;" glyph-name="Tcaron" horiz-adv-x="589" d="M202 573H20V721H569V573H387V0H202V573ZM360 794H229L101 979H220L295 904L369 979H488L360 794Z" />
<glyph unicode="&#x165;" glyph-name="tcaron" horiz-adv-x="408" d="M258 -8Q218 -8 187 -1T135 24T103 71T92 146V427H21V552H92V682H259V552H370V427H259V171Q259 141 274 131T323 121Q336 121 349 123T374 127V15Q358 6 329 -1T258 -8ZM315 769H463L432 600H311L315
769Z" />
<glyph unicode="&#x166;" glyph-name="Tbar" horiz-adv-x="589" d="M520 355H69V461H520V355ZM202 573H20V721H569V573H387V0H202V573Z" />
<glyph unicode="&#x167;" glyph-name="tbar" horiz-adv-x="408" d="M370 369V276H21V369H370ZM258 -8Q218 -8 187 -1T135 24T103 71T92 146V427H21V552H92V682H259V552H370V427H259V171Q259 141 274 131T323 121Q336 121 349 123T374 127V15Q358 6 329 -1T258 -8Z" />
<glyph unicode="&#x168;" glyph-name="Utilde" horiz-adv-x="691" d="M351 -12Q203 -12 129 50T55 243V721H242V250Q242 182 270 157T356 132Q415 132 442 157T469 251V721H635V245Q635 113 567 51T351 -12ZM158 798Q161 841 173 871T203 919T243 946T287 954Q306
954 323 948T356 936T384 923T408 917Q435 917 443 953H550Q547 910 535 880T504 832T464 805T420 797Q400 797 383 803T352 815T324 828T301 834Q287 834 278 825T265 798H158V798Z" />
<glyph unicode="&#x169;" glyph-name="utilde" horiz-adv-x="581" d="M202 -11Q128 -11 88 28T47 148V552H214V189Q214 155 227 140T278 124Q301 124 323 131T362 147V552H530V0H383L371 68H366Q331 29 292 9T202 -11ZM97 627Q100 670 112 700T142 748T182 775T226
783Q245 783 262 777T295 765T323 752T347 746Q374 746 382 782H489Q486 739 474 709T443 661T403 634T359 626Q339 626 322 632T291 644T263 657T240 663Q226 663 217 654T204 627H97V627Z" />
<glyph unicode="&#x16a;" glyph-name="Umacron" horiz-adv-x="691" d="M351 -12Q203 -12 129 50T55 243V721H242V250Q242 182 270 157T356 132Q415 132 442 157T469 251V721H635V245Q635 113 567 51T351 -12ZM183 922H529V809H183V922Z" />
<glyph unicode="&#x16b;" glyph-name="umacron" horiz-adv-x="581" d="M202 -11Q128 -11 88 28T47 148V552H214V189Q214 155 227 140T278 124Q301 124 323 131T362 147V552H530V0H383L371 68H366Q331 29 292 9T202 -11ZM132 762H441V646H132V762Z" />
<glyph unicode="&#x16c;" glyph-name="Ubreve" horiz-adv-x="691" d="M351 -12Q203 -12 129 50T55 243V721H242V250Q242 182 270 157T356 132Q415 132 442 157T469 251V721H635V245Q635 113 567 51T351 -12ZM357 784Q274 784 229 833T181 965H295Q297 933 314
916T357 898Q383 898 400 915T420 965H535Q533 881 487 833T357 784Z" />
<glyph unicode="&#x16d;" glyph-name="ubreve" horiz-adv-x="581" d="M202 -11Q128 -11 88 28T47 148V552H214V189Q214 155 227 140T278 124Q301 124 323 131T362 147V552H530V0H383L371 68H366Q331 29 292 9T202 -11ZM290 616Q252 616 221 628T166 662T130 718T115
795H228Q233 757 249 743T290 729Q314 729 330 743T352 795H465Q464 752 451 719T414 663T359 628T290 616Z" />
<glyph unicode="&#x16e;" glyph-name="Uring" horiz-adv-x="691" d="M351 -12Q203 -12 129 50T55 243V721H242V250Q242 182 270 157T356 132Q415 132 442 157T469 251V721H635V245Q635 113 567 51T351 -12ZM360 1016Q332 1016 308 1025T267 1051T239 1091T229
1141Q229 1168 239 1191T266 1230T308 1256T360 1266Q388 1266 412 1257T453 1231T481 1191T491 1141Q491 1114 481 1091T454 1052T412 1026T360 1016ZM360 1096Q380 1096 392 1108T404 1141Q404 1161 392 1173T360 1186Q340 1186 328 1174T316 1141Q316 1121 328
1109T360 1096Z" />
<glyph unicode="&#x16f;" glyph-name="uring" horiz-adv-x="581" d="M202 -11Q128 -11 88 28T47 148V552H214V189Q214 155 227 140T278 124Q301 124 323 131T362 147V552H530V0H383L371 68H366Q331 29 292 9T202 -11ZM290 616Q262 616 238 625T197 651T169 691T159
741Q159 768 169 791T196 830T238 856T290 866Q318 866 342 857T383 831T411 791T421 741Q421 714 411 691T384 652T342 626T290 616ZM290 696Q310 696 322 708T334 741Q334 761 322 773T290 786Q270 786 258 774T246 741Q246 721 258 709T290 696Z" />
<glyph unicode="&#x170;" glyph-name="Uhungarumlaut" horiz-adv-x="691" d="M351 -12Q203 -12 129 50T55 243V721H242V250Q242 182 270 157T356 132Q415 132 442 157T469 251V721H635V245Q635 113 567 51T351 -12ZM447 964H596L502 795H389L447 964ZM259 964H408L314
795H201L259 964Z" />
<glyph unicode="&#x171;" glyph-name="uhungarumlaut" horiz-adv-x="581" d="M202 -11Q128 -11 88 28T47 148V552H214V189Q214 155 227 140T278 124Q301 124 323 131T362 147V552H530V0H383L371 68H366Q331 29 292 9T202 -11ZM370 793H522L458 624H333L370 793ZM161
793H313L247 624H122L161 793Z" />
<glyph unicode="&#x172;" glyph-name="Uogonek" horiz-adv-x="691" d="M406 -210Q338 -210 309 -184T279 -120Q279 -84 301 -57T355 -12H351Q203 -12 129 50T55 243V721H242V250Q242 182 270 157T356 132Q415 132 442 157T469 251V721H635V245Q635 192 625 154T597
87T555 41T502 12Q473 1 455 -13T426 -40T411 -66T407 -88Q407 -108 421 -116T455 -125Q463 -125 476 -124T495 -121V-194Q483 -200 459 -205T406 -210Z" />
<glyph unicode="&#x173;" glyph-name="uogonek" horiz-adv-x="581" d="M202 -11Q128 -11 88 28T47 148V552H214V189Q214 155 227 140T278 124Q301 124 323 131T362 147V552H530V10Q494 -21 480 -44T465 -88Q465 -108 479 -116T513 -125Q521 -125 534 -124T553
-121V-194Q541 -200 517 -205T464 -210Q396 -210 367 -184T337 -120Q337 -99 345 -81T367 -48T398 -21T435 0H383L371 68H366Q331 29 292 9T202 -11Z" />
<glyph unicode="&#x174;" glyph-name="Wcircumflex" horiz-adv-x="946" d="M15 721H201L251 473Q255 450 259 422T268 364T275 303T281 244Q287 177 292 108H295Q301 176 309 241Q316 297 324 358T344 466L401 721H564L621 466Q631 420 639 359T655 241Q663 176
669 108H672Q677 177 683 244Q686 272 689 303T696 364T704 422T714 473L766 721H930L764 0H575L518 268Q510 306 503 359T489 464Q482 523 476 585H473Q467 523 460 464Q454 413 446 360T430 268L369 0H180L15 721ZM413 979H544L672 794H553L479 869L404 794H285L413
979Z" />
<glyph unicode="&#x175;" glyph-name="wcircumflex" horiz-adv-x="788" d="M10 552H177L211 401Q218 368 224 318T236 221Q241 166 247 107H251Q257 166 264 221Q270 269 277 318T294 401L333 552H476L516 401Q524 368 532 318T547 221Q554 166 561 107H565Q569
166 575 221Q580 269 586 318T601 401L635 552H777L638 0H481L434 180Q426 210 419 253T407 338Q401 386 396 436H393Q388 386 382 338Q377 297 370 254T355 180L307 0H151L10 552ZM335 808H466L594 623H475L401 698L326 623H207L335 808Z" />
<glyph unicode="&#x176;" glyph-name="Ycircumflex" horiz-adv-x="640" d="M227 282L8 721H201L252 608Q266 577 279 540T304 469Q317 430 329 392H332Q343 430 355 469Q366 502 378 539T405 608L456 721H631L413 282V0H227V282ZM258 979H389L517 794H398L324
869L249 794H130L258 979Z" />
<glyph unicode="&#x177;" glyph-name="ycircumflex" horiz-adv-x="545" d="M127 -206Q114 -206 99 -205T70 -201T44 -195T24 -188V-72Q37 -75 53 -77T82 -79Q127 -79 149 -63T182 -17L193 12L-3 552H170L225 383Q236 351 244 305T261 215Q269 165 277 111H280Q288
164 297 214Q305 257 314 303T333 383L384 552H544L344 -42Q330 -83 313 -114T270 -165T210 -196T127 -206ZM209 808H340L468 623H349L275 698L200 623H81L209 808Z" />
<glyph unicode="&#x178;" glyph-name="Ydieresis" horiz-adv-x="640" d="M227 282L8 721H201L252 608Q266 577 279 540T304 469Q317 430 329 392H332Q343 430 355 469Q366 502 378 539T405 608L456 721H631L413 282V0H227V282ZM354 933H513V799H354V933ZM134 933H293V799H134V933Z"
/>
<glyph unicode="&#x179;" glyph-name="Zacute" horiz-adv-x="584" d="M32 137L238 431Q254 454 274 479T314 525Q336 550 359 574V577H51V721H547V584L342 290Q325 267 305 242T265 195Q243 170 221 147V144H546V0H32V137ZM371 795H231L298 964H474L371 795Z" />
<glyph unicode="&#x17a;" glyph-name="zacute" horiz-adv-x="481" d="M23 123L182 329Q196 348 213 365T244 396Q261 412 277 426V429H32V552H457V440L291 223Q277 205 260 188T228 156Q210 140 193 126V123H454V0H23V123ZM486 793H662L559 624H419L486 793Z" />
<glyph unicode="&#x17b;" glyph-name="Zdotaccent" horiz-adv-x="584" d="M32 137L238 431Q254 454 274 479T314 525Q336 550 359 574V577H51V721H547V584L342 290Q325 267 305 242T265 195Q243 170 221 147V144H546V0H32V137ZM216 933H388V799H216V933Z" />
<glyph unicode="&#x17c;" glyph-name="zdotaccent" horiz-adv-x="481" d="M23 123L182 329Q196 348 213 365T244 396Q261 412 277 426V429H32V552H457V440L291 223Q277 205 260 188T228 156Q210 140 193 126V123H454V0H23V123ZM165 779H334V637H165V779Z" />
<glyph unicode="&#x17d;" glyph-name="Zcaron" horiz-adv-x="584" d="M32 137L238 431Q254 454 274 479T314 525Q336 550 359 574V577H51V721H547V584L342 290Q325 267 305 242T265 195Q243 170 221 147V144H546V0H32V137ZM368 794H237L109 979H228L303 904L377
979H496L368 794Z" />
<glyph unicode="&#x17e;" glyph-name="zcaron" horiz-adv-x="481" d="M23 123L182 329Q196 348 213 365T244 396Q261 412 277 426V429H32V552H457V440L291 223Q277 205 260 188T228 156Q210 140 193 126V123H454V0H23V123ZM569 623H438L310 808H429L504 733L578
808H697L569 623Z" />
<glyph unicode="&#x192;" glyph-name="florin" horiz-adv-x="475" d="M52 435H136L153 549Q161 600 179 635T223 692T281 723T352 733Q393 733 418 727T459 714V595Q445 598 434 600T407 602Q369 602 348 588T319 530L304 435H409V310H285L236 -10Q221 -103 172
-146T42 -190Q8 -190 -16 -184T-52 -171V-56Q-42 -58 -32 -59T-8 -61Q22 -61 43 -47T70 0L117 310H52V435Z" />
<glyph unicode="&#x1fa;" glyph-name="Aringacute" horiz-adv-x="698" d="M251 721H449L688 0H495L453 135H214L174 0H9L251 721ZM250 252H417L383 365Q372 400 364 441T349 520Q342 563 336 606H331Q325 563 318 520Q312 483 303 441T284 365L250 252ZM345 761Q317
761 293 770T252 796T224 836T214 886Q214 913 224 936T251 975T293 1001T345 1011Q373 1011 397 1002T438 976T466 936T476 886Q476 859 466 836T439 797T397 771T345 761ZM345 841Q365 841 377 853T389 886Q389 906 377 918T345 931Q325 931 313 919T301 886Q301
866 313 854T345 841ZM413 1038H273L340 1207H516L413 1038Z" />
<glyph unicode="&#x1fb;" glyph-name="aringacute" horiz-adv-x="527" d="M332 898H192L259 1067H435L332 898Z" />
<glyph unicode="&#x1fc;" glyph-name="AEacute" horiz-adv-x="954" d="M365 721H906V573H618V438H843V298H618V148H916V0H435V139H236L171 0H4L365 721ZM291 256H435V363Q435 401 435 444T438 526Q440 570 442 615H438Q424 572 409 530Q396 494 380 453T347 376L291
256ZM678 795H538L605 964H781L678 795Z" />
<glyph unicode="&#x1fd;" glyph-name="aeacute" horiz-adv-x="841" d="M190 -10Q117 -10 72 30T26 149Q26 192 39 221T77 270T137 300T215 317L317 330V358Q317 397 293 411T209 426Q169 426 134 422T70 410V530Q112 547 158 555T265 563Q318 563 356 550T417
504Q474 563 569 563Q694 563 753 498T813 299V225H487Q489 193 498 173T525 141T570 125T634 120Q682 120 721 128T792 147V34Q762 18 713 4T591 -10Q513 -10 459 10T371 72Q339 30 292 10T190 -10ZM337 133Q320 177 317 241L249 234Q216 231 202 215T187 163Q187
125 204 110T248 95Q275 95 299 105T337 133ZM569 446Q551 446 536 442T510 424T491 389T483 330H652Q652 365 646 387T630 423T604 441T569 446ZM419 793H595L492 624H352L419 793Z" />
<glyph unicode="&#x1fe;" glyph-name="Oslashacute" horiz-adv-x="718" d="M359 -12Q275 -12 205 20L152 -62H25L118 83Q79 125 56 184T33 322V396Q33 488 59 552T131 656T235 715T362 733Q444 733 514 701L554 762H682L602 638Q640 596 662 538T685 400V326Q685
234 659 170T589 66T486 7T359 -12ZM214 324Q214 299 215 278T218 240L440 585Q411 599 358 599Q289 599 252 554T214 410V324ZM359 121Q428 121 466 168T504 314V400Q504 423 503 442T500 479L278 135Q307 121 359 121ZM424 795H284L351 964H527L424 795Z" />
<glyph unicode="&#x1ff;" glyph-name="oslashacute" horiz-adv-x="580" d="M290 -10Q257 -10 228 -5T172 11L124 -62H13L96 62Q63 96 46 143T28 247V299Q28 365 47 414T102 497T185 546T290 563Q359 563 412 539L449 595H559L487 487Q519 453 535 408T552 305V254Q552
188 533 139T479 56T396 7T290 -10ZM187 249Q187 236 187 225T189 204L342 433Q320 444 290 444Q245 444 216 414T187 307V249ZM292 108Q314 108 333 114T365 137T386 179T394 244V302Q394 313 394 323T392 342L242 117Q253 112 265 110T292 108ZM283 793H459L356
624H216L283 793Z" />
<glyph unicode="&#x218;" glyph-name="Scommaaccent" horiz-adv-x="549" d="M252 -12Q180 -12 123 -1T31 31V180Q76 163 124 151T232 139Q289 139 314 156T339 206Q339 221 336 232T323 252T298 266T256 279L202 292Q158 302 126 318T72 360T39 423T28 511Q28
613 88 673T279 733Q319 733 349 730T403 722T445 710T477 696V548Q443 562 398 572T295 582Q204 582 204 521Q204 507 207 497T218 479T242 465T280 453L335 440Q380 429 415 413T473 373T508 312T520 224Q520 -12 252 -12ZM190 -67H350L311 -242H185L190 -67Z"
/>
<glyph unicode="&#x219;" glyph-name="scommaaccent" horiz-adv-x="469" d="M214 -10Q154 -10 109 -3T31 23V148Q63 135 99 126T189 117Q219 117 237 120T265 130T278 144T281 163Q281 182 269 191T221 206L178 213Q109 224 69 264T29 381Q29 468 81 515T242 563Q302
563 340 557T408 538V415Q382 424 347 430T264 436Q213 436 197 425T181 393Q181 375 193 367T242 352L284 345Q369 331 405 291T441 175Q441 84 385 37T214 -10ZM406 -67H566L527 -242H401L406 -67Z" />
<glyph unicode="&#x21a;" glyph-name="uni021A" horiz-adv-x="589" d="M202 573H20V721H569V573H387V0H202V573ZM213 -67H373L334 -242H208L213 -67Z" />
<glyph unicode="&#x21b;" glyph-name="uni021B" horiz-adv-x="408" d="M398 -67H558L519 -242H393L398 -67ZM258 -8Q218 -8 187 -1T135 24T103 71T92 146V427H21V552H92V682H259V552H370V427H259V171Q259 141 274 131T323 121Q336 121 349 123T374 127V15Q358
6 329 -1T258 -8Z" />
<glyph unicode="&#x237;" glyph-name="uni0237" horiz-adv-x="270" d="M35 -206Q3 -206 -22 -201T-61 -187V-76Q-52 -78 -42 -79T-20 -80Q15 -80 33 -64T51 -12V552H219V-29Q219 -68 209 -101T177 -157T120 -193T35 -206Z" />
<glyph unicode="&#x2c6;" glyph-name="circumflex" horiz-adv-x="500" d="M184 808H315L443 623H324L250 698L175 623H56L184 808Z" />
<glyph unicode="&#x2c7;" glyph-name="caron" horiz-adv-x="500" d="M315 623H184L56 808H175L250 733L324 808H443L315 623Z" />
<glyph unicode="&#x2d8;" glyph-name="breve" horiz-adv-x="500" d="M250 616Q212 616 181 628T126 662T90 718T75 795H188Q193 757 209 743T250 729Q274 729 290 743T312 795H425Q424 752 411 719T374 663T319 628T250 616Z" />
<glyph unicode="&#x2d9;" glyph-name="dotaccent" horiz-adv-x="500" d="M165 779H334V637H165V779Z" />
<glyph unicode="&#x2da;" glyph-name="ring" horiz-adv-x="500" d="M250 616Q222 616 198 625T157 651T129 691T119 741Q119 768 129 791T156 830T198 856T250 866Q278 866 302 857T343 831T371 791T381 741Q381 714 371 691T344 652T302 626T250 616ZM250 696Q270
696 282 708T294 741Q294 761 282 773T250 786Q230 786 218 774T206 741Q206 721 218 709T250 696Z" />
<glyph unicode="&#x2db;" glyph-name="ogonek" horiz-adv-x="500" d="M276 -210Q208 -210 179 -184T149 -120Q149 -99 157 -81T179 -48T210 -21T247 0H331Q277 -46 277 -88Q277 -108 291 -116T325 -125Q333 -125 346 -124T365 -121V-194Q353 -200 329 -205T276 -210Z" />
<glyph unicode="&#x2dc;" glyph-name="tilde" horiz-adv-x="500" d="M54 627Q57 670 69 700T99 748T139 775T183 783Q202 783 219 777T252 765T280 752T304 746Q331 746 339 782H446Q443 739 431 709T400 661T360 634T316 626Q296 626 279 632T248 644T220 657T197
663Q183 663 174 654T161 627H54V627Z" />
<glyph unicode="&#x2dd;" glyph-name="hungarumlaut" horiz-adv-x="500" d="M324 793H476L412 624H287L324 793ZM115 793H267L201 624H76L115 793Z" />
</font>
</defs>
</svg>
